<svg width="152" height="172" viewBox="0 0 152 172" fill="none" xmlns="http://www.w3.org/2000/svg">
<path d="M82.4263 28.6546C85.1319 30.2796 91.7514 33.9866 92.6818 34.5221C93.1706 34.8034 93.4246 34.9893 93.6196 35.1017L105.805 19.5279C104.275 17.0421 98.5337 11.9657 96.7176 10.3896L82.4263 28.6546Z" fill="#D6CECE"/>
<path d="M82.4263 28.6546C85.1319 30.2796 91.7514 33.9866 92.6818 34.5221C93.1706 34.8034 93.4246 34.9893 93.6196 35.1017L105.805 19.5279C104.275 17.0421 98.5337 11.9657 96.7176 10.3896L82.4263 28.6546Z" fill="black" fill-opacity="0.2"/>
<path d="M96.1633 9.91205C96.1633 9.91205 94.2301 7.93611 92.4674 8.41008C90.7048 8.88404 80.713 22.8406 80.4881 23.128C80.2633 23.4153 79.0266 24.9958 79.2648 25.8771C79.5031 26.7585 80.4788 27.2903 81.3421 27.9658C81.4879 28.0799 81.8762 28.3242 82.4263 28.6546L96.7176 10.3896C96.3675 10.0858 96.1633 9.91205 96.1633 9.91205Z" fill="#D6CECE"/>
<path d="M96.1633 9.91205C96.1633 9.91205 94.2301 7.93611 92.4674 8.41008C90.7048 8.88404 80.713 22.8406 80.4881 23.128C80.2633 23.4153 79.0266 24.9958 79.2648 25.8771C79.5031 26.7585 80.4788 27.2903 81.3421 27.9658C81.4879 28.0799 81.8762 28.3242 82.4263 28.6546L96.7176 10.3896C96.3675 10.0858 96.1633 9.91205 96.1633 9.91205Z" fill="#707070"/>
<path d="M108.856 27.4879C108.362 26.6377 104.49 24.7667 104.252 23.8854C104.014 23.004 106.033 22.4989 106.181 20.5303C106.199 20.2879 106.061 19.9443 105.805 19.5279L93.6196 35.1017C93.8712 35.2468 94.0247 35.2694 94.4579 35.2168C95.2268 35.1235 96.3196 33.4305 97.057 33.0809C97.7945 32.7314 99.3772 33.9697 99.3591 34.8822C99.3411 35.7947 95.5548 38.8549 95.6492 39.6236C95.6581 39.6962 95.6747 39.7748 95.6971 39.8581L108.728 50.0538C108.783 50.0344 108.836 50.0103 108.886 49.981C109.736 49.4877 111.683 45.2202 112.596 45.2395C113.509 45.2588 118.716 51.6491 120.393 53.6563C122.07 55.6634 122.214 55.776 122.852 56.7388C123.49 57.7017 124.493 60.5709 124.493 60.5709L125.639 63.5527L126.799 67.7032C126.799 67.7032 127.244 69.2097 128.027 70.2851C128.809 71.3605 131.66 71.2747 133.072 70.063C134.484 68.8514 135.469 57.8086 135.042 55.3897C134.615 52.9708 133.491 46.9953 132.439 44.7823C131.387 42.5692 128.465 38.8927 128.002 38.2987C127.539 37.7047 122.124 30.4653 118.724 30.808C115.324 31.1507 118.814 33.1854 118.526 33.4328C118.239 33.6803 117.008 34.5612 112.75 33.7775C108.492 32.9938 109.351 28.3382 108.856 27.4879Z" fill="#D6CECE"/>
<path d="M108.856 27.4879C108.362 26.6377 104.49 24.7667 104.252 23.8854C104.014 23.004 106.033 22.4989 106.181 20.5303C106.199 20.2879 106.061 19.9443 105.805 19.5279L93.6196 35.1017C93.8712 35.2468 94.0247 35.2694 94.4579 35.2168C95.2268 35.1235 96.3196 33.4305 97.057 33.0809C97.7945 32.7314 99.3772 33.9697 99.3591 34.8822C99.3411 35.7947 95.5548 38.8549 95.6492 39.6236C95.6581 39.6962 95.6747 39.7748 95.6971 39.8581L108.728 50.0538C108.783 50.0344 108.836 50.0103 108.886 49.981C109.736 49.4877 111.683 45.2202 112.596 45.2395C113.509 45.2588 118.716 51.6491 120.393 53.6563C122.07 55.6634 122.214 55.776 122.852 56.7388C123.49 57.7017 124.493 60.5709 124.493 60.5709L125.639 63.5527L126.799 67.7032C126.799 67.7032 127.244 69.2097 128.027 70.2851C128.809 71.3605 131.66 71.2747 133.072 70.063C134.484 68.8514 135.469 57.8086 135.042 55.3897C134.615 52.9708 133.491 46.9953 132.439 44.7823C131.387 42.5692 128.465 38.8927 128.002 38.2987C127.539 37.7047 122.124 30.4653 118.724 30.808C115.324 31.1507 118.814 33.1854 118.526 33.4328C118.239 33.6803 117.008 34.5612 112.75 33.7775C108.492 32.9938 109.351 28.3382 108.856 27.4879Z" fill="black" fill-opacity="0.2"/>
<path d="M108.856 27.4879C108.362 26.6377 104.49 24.7667 104.252 23.8854C104.014 23.004 106.033 22.4989 106.181 20.5303C106.199 20.2879 106.061 19.9443 105.805 19.5279L93.6196 35.1017C93.8712 35.2468 94.0247 35.2694 94.4579 35.2168C95.2268 35.1235 96.3196 33.4305 97.057 33.0809C97.7945 32.7314 99.3772 33.9697 99.3591 34.8822C99.3411 35.7947 95.5548 38.8549 95.6492 39.6236C95.6581 39.6962 95.6747 39.7748 95.6971 39.8581L108.728 50.0538C108.783 50.0344 108.836 50.0103 108.886 49.981C109.736 49.4877 111.683 45.2202 112.596 45.2395C113.509 45.2588 118.716 51.6491 120.393 53.6563C122.07 55.6634 122.214 55.776 122.852 56.7388C123.49 57.7017 124.493 60.5709 124.493 60.5709L125.639 63.5527L126.799 67.7032C126.799 67.7032 127.244 69.2097 128.027 70.2851C128.809 71.3605 131.66 71.2747 133.072 70.063C134.484 68.8514 135.469 57.8086 135.042 55.3897C134.615 52.9708 133.491 46.9953 132.439 44.7823C131.387 42.5692 128.465 38.8927 128.002 38.2987C127.539 37.7047 122.124 30.4653 118.724 30.808C115.324 31.1507 118.814 33.1854 118.526 33.4328C118.239 33.6803 117.008 34.5612 112.75 33.7775C108.492 32.9938 109.351 28.3382 108.856 27.4879Z" fill="#BEBEBE" fill-opacity="0.2"/>
<path d="M80.6641 80.7136C80.7451 80.3137 101.624 53.3329 102.474 52.8397C103.324 52.3464 103.994 53.5655 104.812 52.816C104.896 52.7396 104.964 52.6514 105.021 52.5544L100.27 48.8372L91.9053 49.4347C86.4692 56.669 72.9103 73.9037 72.319 74.184C72.0583 74.3076 71.6318 74.2725 71.1581 74.2022L80.7194 81.6835C80.6684 81.2397 80.6346 80.8595 80.6641 80.7136Z" fill="#D6CECE"/>
<path d="M80.6641 80.7136C80.7451 80.3137 101.624 53.3329 102.474 52.8397C103.324 52.3464 103.994 53.5655 104.812 52.816C104.896 52.7396 104.964 52.6514 105.021 52.5544L100.27 48.8372L91.9053 49.4347C86.4692 56.669 72.9103 73.9037 72.319 74.184C72.0583 74.3076 71.6318 74.2725 71.1581 74.2022L80.7194 81.6835C80.6684 81.2397 80.6346 80.8595 80.6641 80.7136Z" fill="black" fill-opacity="0.2"/>
<path d="M80.6641 80.7136C80.7451 80.3137 101.624 53.3329 102.474 52.8397C103.324 52.3464 103.994 53.5655 104.812 52.816C104.896 52.7396 104.964 52.6514 105.021 52.5544L100.27 48.8372L91.9053 49.4347C86.4692 56.669 72.9103 73.9037 72.319 74.184C72.0583 74.3076 71.6318 74.2725 71.1581 74.2022L80.7194 81.6835C80.6684 81.2397 80.6346 80.8595 80.6641 80.7136Z" fill="#E1537D"/>
<path d="M95.6971 39.8581C95.9118 40.6573 96.6588 41.8909 96.2515 42.4114C95.8731 42.8951 94.485 43.4092 93.9395 43.884L97.68 46.8107L98.9749 47.824L100.27 48.8372L105.021 52.5544C105.518 51.6999 105.085 50.1556 105.748 49.8416C106.441 49.5129 107.855 50.3622 108.728 50.0538L95.6971 39.8581Z" fill="#D6CECE"/>
<path d="M95.6971 39.8581C95.9118 40.6573 96.6588 41.8909 96.2515 42.4114C95.8731 42.8951 94.485 43.4092 93.9395 43.884L97.68 46.8107L98.9749 47.824L100.27 48.8372L105.021 52.5544C105.518 51.6999 105.085 50.1556 105.748 49.8416C106.441 49.5129 107.855 50.3622 108.728 50.0538L95.6971 39.8581Z" fill="black" fill-opacity="0.2"/>
<path d="M95.6971 39.8581C95.9118 40.6573 96.6588 41.8909 96.2515 42.4114C95.8731 42.8951 94.485 43.4092 93.9395 43.884L97.68 46.8107L98.9749 47.824L100.27 48.8372L105.021 52.5544C105.518 51.6999 105.085 50.1556 105.748 49.8416C106.441 49.5129 107.855 50.3622 108.728 50.0538L95.6971 39.8581Z" fill="#F6CADE"/>
<path d="M71.1581 74.2022C70.292 74.0738 69.0991 74.4443 69.0991 74.4443C68.4741 74.6502 68.1236 74.8787 67.7872 75.271L80.626 85.3168C80.7881 84.592 80.8531 83.8963 80.8977 83.6761C80.9491 83.4221 80.8083 82.4565 80.7194 81.6835L71.1581 74.2022Z" fill="#D6CECE"/>
<path d="M71.1581 74.2022C70.292 74.0738 69.0991 74.4443 69.0991 74.4443C68.4741 74.6502 68.1236 74.8787 67.7872 75.271L80.626 85.3168C80.7881 84.592 80.8531 83.8963 80.8977 83.6761C80.9491 83.4221 80.8083 82.4565 80.7194 81.6835L71.1581 74.2022Z" fill="black" fill-opacity="0.2"/>
<path d="M71.1581 74.2022C70.292 74.0738 69.0991 74.4443 69.0991 74.4443C68.4741 74.6502 68.1236 74.8787 67.7872 75.271L80.626 85.3168C80.7881 84.592 80.8531 83.8963 80.8977 83.6761C80.9491 83.4221 80.8083 82.4565 80.7194 81.6835L71.1581 74.2022Z" fill="#F6CADE"/>
<path d="M67.7872 75.271C67.441 75.6749 67.0988 76.1122 66.7566 76.5495C66.1693 77.3001 31.4839 119.157 22.586 130.477L37.9143 142.47C46.6843 131.051 79.4064 87.6574 79.9937 86.9068C80.2969 86.5193 80.4938 85.9084 80.626 85.3168L67.7872 75.271Z" fill="#D6CECE"/>
<path d="M67.7872 75.271C67.441 75.6749 67.0988 76.1122 66.7566 76.5495C66.1693 77.3001 31.4839 119.157 22.586 130.477L37.9143 142.47C46.6843 131.051 79.4064 87.6574 79.9937 86.9068C80.2969 86.5193 80.4938 85.9084 80.626 85.3168L67.7872 75.271Z" fill="#FF89AC"/>
<path d="M20.5242 133.265C20.6186 134.033 22.3451 135.384 22.6329 135.609C22.9207 135.835 33.2878 144.069 33.9995 144.503C34.7112 144.938 35.2944 145.516 35.7756 145.198C35.8378 145.157 36.6119 144.166 37.9143 142.47L22.586 130.477C21.2646 132.158 20.512 133.165 20.5242 133.265Z" fill="#D6CECE"/>
<path d="M20.5242 133.265C20.6186 134.033 22.3451 135.384 22.6329 135.609C22.9207 135.835 33.2878 144.069 33.9995 144.503C34.7112 144.938 35.2944 145.516 35.7756 145.198C35.8378 145.157 36.6119 144.166 37.9143 142.47L22.586 130.477C21.2646 132.158 20.512 133.165 20.5242 133.265Z" fill="#F6CADE"/>
<path d="M72.319 74.184C72.9996 73.8614 90.8643 51.0718 93.7406 46.9328M72.319 74.184C72.0583 74.3076 71.6318 74.2725 71.1581 74.2022M72.319 74.184C72.9103 73.9037 86.4692 56.669 91.9053 49.4347L100.27 48.8372M96.7176 10.3896C96.3675 10.0858 96.1633 9.91205 96.1633 9.91205C96.1633 9.91205 94.2301 7.93611 92.4674 8.41008C90.7048 8.88404 80.713 22.8406 80.4881 23.128C80.2633 23.4153 79.0266 24.9958 79.2648 25.8771C79.5031 26.7585 80.4788 27.2903 81.3421 27.9658C81.4879 28.0799 81.8762 28.3242 82.4263 28.6546M96.7176 10.3896L82.4263 28.6546M96.7176 10.3896C98.5337 11.9657 104.275 17.0421 105.805 19.5279M82.4263 28.6546C85.1319 30.2796 91.7514 33.9866 92.6818 34.5221C93.1706 34.8034 93.4246 34.9893 93.6196 35.1017M105.805 19.5279C106.061 19.9443 106.199 20.2879 106.181 20.5303C106.033 22.4989 104.014 23.004 104.252 23.8854C104.49 24.7667 108.362 26.6377 108.856 27.4879C109.351 28.3382 108.492 32.9938 112.75 33.7775C117.008 34.5612 118.239 33.6803 118.526 33.4328C118.814 33.1854 115.324 31.1507 118.724 30.808C122.124 30.4653 127.539 37.7047 128.002 38.2987C128.465 38.8927 131.387 42.5692 132.439 44.7823C133.491 46.9953 134.615 52.9708 135.042 55.3897C135.469 57.8086 134.484 68.8514 133.072 70.063C131.66 71.2747 128.809 71.3605 128.027 70.2851C127.244 69.2097 126.799 67.7032 126.799 67.7032L125.639 63.5527L124.493 60.5709C124.493 60.5709 123.49 57.7017 122.852 56.7388C122.214 55.776 122.07 55.6634 120.393 53.6563C118.716 51.6491 113.509 45.2588 112.596 45.2395C111.683 45.2202 109.736 49.4877 108.886 49.981C108.836 50.0103 108.783 50.0344 108.728 50.0538M105.805 19.5279L93.6196 35.1017M93.6196 35.1017C93.8712 35.2468 94.0247 35.2694 94.4579 35.2168C95.2268 35.1235 96.3196 33.4305 97.057 33.0809C97.7945 32.7314 99.3772 33.9697 99.3591 34.8822C99.3411 35.7947 95.5548 38.8549 95.6492 39.6236C95.6581 39.6962 95.6747 39.7748 95.6971 39.8581M95.6971 39.8581C95.9118 40.6573 96.6588 41.8909 96.2515 42.4114C95.8731 42.8951 94.485 43.4092 93.9395 43.884M95.6971 39.8581L108.728 50.0538M108.728 50.0538C107.855 50.3622 106.441 49.5129 105.748 49.8416C105.085 50.1556 105.518 51.6999 105.021 52.5544M93.9395 43.884C93.8368 43.9733 93.764 44.0613 93.7334 44.1474C93.54 44.691 94.2909 45.5102 94.1289 46.31C94.1165 46.3717 93.9808 46.5872 93.7406 46.9328M93.9395 43.884L97.68 46.8107M105.021 52.5544C104.964 52.6514 104.896 52.7396 104.812 52.816C103.994 53.5655 103.324 52.3464 102.474 52.8397C101.624 53.3329 80.7451 80.3137 80.6641 80.7136C80.6346 80.8595 80.6684 81.2397 80.7194 81.6835M105.021 52.5544L97.68 46.8107M105.021 52.5544L100.27 48.8372M97.68 46.8107L93.7406 46.9328M97.68 46.8107L98.9749 47.824M98.9749 47.824L92.905 48.1707M98.9749 47.824L100.27 48.8372M71.1581 74.2022C70.292 74.0738 69.0991 74.4443 69.0991 74.4443C68.4741 74.6502 68.1236 74.8787 67.7872 75.271M71.1581 74.2022L80.7194 81.6835M80.7194 81.6835C80.8083 82.4565 80.9491 83.4221 80.8977 83.6761C80.8531 83.8963 80.7881 84.592 80.626 85.3168M67.7872 75.271C67.441 75.6749 67.0988 76.1122 66.7566 76.5495C66.1693 77.3001 31.4839 119.157 22.586 130.477M67.7872 75.271L80.626 85.3168M80.626 85.3168C80.4938 85.9084 80.2969 86.5193 79.9937 86.9068C79.4064 87.6574 46.6843 131.051 37.9143 142.47M22.586 130.477C21.2646 132.158 20.512 133.165 20.5242 133.265C20.6186 134.033 22.3451 135.384 22.6329 135.609C22.9207 135.835 33.2878 144.069 33.9995 144.503C34.7112 144.938 35.2944 145.516 35.7756 145.198C35.8378 145.157 36.6119 144.166 37.9143 142.47M22.586 130.477L37.9143 142.47" stroke="#181818" stroke-width="2"/>
<path d="M31.7366 134.639C31.7366 134.639 28.5321 132.132 28.4715 131.152C28.4257 130.411 50.4102 103.422 61.7792 89.631C62.2671 89.0393 62.7354 88.4718 63.1816 87.9318C63.6344 87.3837 64.0644 86.8639 64.4689 86.3755C64.9339 85.8142 65.3652 85.2945 65.7588 84.8213C66.2004 84.2904 66.5945 83.8181 66.9352 83.4114C67.017 83.3138 67.0957 83.22 67.1713 83.13C67.5892 82.6325 67.9106 82.2536 68.1221 82.0096C68.2364 81.8777 68.3186 81.7852 68.3665 81.7348C68.9238 81.1481 69.9087 81.3578 70.9231 81.9158C71.1097 82.0184 71.2973 82.1328 71.4834 82.2563C71.7954 82.4632 72.1033 82.6954 72.3953 82.9398C72.5639 83.081 72.7273 83.2262 72.8831 83.3729C73.3287 83.7924 73.7126 84.2244 73.9822 84.6096C74.3199 85.0921 74.4782 85.5011 74.3536 85.7202C74.3333 85.7558 74.2625 85.8585 74.1451 86.0232C73.8873 86.3845 73.4045 87.0444 72.7362 87.9503C72.3014 88.5397 71.788 89.2332 71.2069 90.0164C70.8972 90.4338 70.5682 90.8767 70.2217 91.3429C69.8075 91.9 69.3682 92.4905 68.9065 93.1104C68.5535 93.5844 68.1875 94.0757 67.8096 94.5826C56.8464 109.289 35.9436 137.119 35.6805 137.259C35.3263 137.448 31.7366 134.639 31.7366 134.639Z" fill="#F6CADE"/>
<path d="M69.5801 81.5191L70.2217 91.3429M70.2217 91.3429C69.8075 91.9 69.3682 92.4905 68.9065 93.1104M70.2217 91.3429C72.2179 88.6575 73.6303 86.7448 74.1451 86.0232M70.9231 81.9158C69.9087 81.3578 68.9238 81.1481 68.3665 81.7348C68.3186 81.7852 68.2364 81.8777 68.1221 82.0096M70.9231 81.9158L71.2069 90.0164M70.9231 81.9158C71.1097 82.0184 71.2973 82.1328 71.4834 82.2563M72.7362 87.9503L72.3953 82.9398L71.4834 82.2563M68.1221 82.0096L68.9065 93.1104M68.1221 82.0096C67.9106 82.2536 67.5892 82.6325 67.1713 83.13M68.9065 93.1104C68.5535 93.5844 68.1875 94.0757 67.8096 94.5826M67.8096 94.5826C56.8464 109.289 35.9436 137.119 35.6805 137.259C35.3263 137.448 31.7366 134.639 31.7366 134.639C31.7366 134.639 28.5321 132.132 28.4715 131.152C28.4238 130.379 52.3374 101.057 63.1816 87.9318M67.8096 94.5826L66.9352 83.4114M71.4834 82.2563C71.9756 82.5827 72.4575 82.9721 72.8831 83.3729M71.4834 82.2563L67.1713 83.13M73.9822 84.6096C74.3199 85.0921 74.4782 85.5011 74.3536 85.7202C74.3333 85.7558 74.2625 85.8585 74.1451 86.0232M73.9822 84.6096L64.4689 86.3755M73.9822 84.6096C73.7126 84.2244 73.3287 83.7924 72.8831 83.3729M64.4689 86.3755C64.9339 85.8142 65.3652 85.2945 65.7588 84.8213M64.4689 86.3755C64.0644 86.8639 63.6344 87.3837 63.1816 87.9318M72.8831 83.3729L65.7588 84.8213M65.7588 84.8213C66.3064 84.163 66.7809 83.5948 67.1713 83.13M74.1451 86.0232L63.1816 87.9318M72.8832 87.5993L61.7792 89.631" stroke="#181818"/>
</svg>