<svg width="62" height="61" viewBox="0 0 62 61" fill="none" xmlns="http://www.w3.org/2000/svg">
<path d="M53.53 5.51232C42.9025 -0.0808771 19.1351 -0.91297 8.01982 5.51232C-3.0955 11.9376 0.595888 52.0792 8.01982 55.9975C15.4437 59.9157 46.8517 60.8659 53.53 55.9975C60.2083 51.129 64.1574 11.1055 53.53 5.51232Z" fill="#FF89AC" stroke="#181818" stroke-width="2"/>
<path d="M49.9197 9.6495C40.9739 4.94181 20.9672 4.24145 11.6107 9.6495C2.2542 15.0576 5.36149 48.844 11.6107 52.142C17.8599 55.4399 44.2981 56.2397 49.9197 52.142C55.5413 48.0443 58.8656 14.3572 49.9197 9.6495Z" fill="#FF89AC" stroke="#181818" stroke-width="2"/>
<circle cx="30.6898" cy="30.3874" r="13.3597" fill="#FF89AC" stroke="#181818" stroke-width="2"/>
<circle cx="30.6896" cy="30.1613" r="9.8546" fill="#FF89AC" stroke="#181818" stroke-width="2"/>
<path d="M48.2329 14.9535C48.2329 16.0561 47.3391 16.9499 46.2366 16.9499C45.134 16.9499 44.2402 16.0561 44.2402 14.9535C44.2402 13.851 45.134 12.9572 46.2366 12.9572C47.3391 12.9572 48.2329 13.851 48.2329 14.9535Z" stroke="#181818" stroke-width="2"/>
</svg>