<svg width="430" height="232" viewBox="0 0 430 232" fill="none" xmlns="http://www.w3.org/2000/svg">
<path d="M329.163 131.261C336.409 118.324 340.276 103.769 340.405 88.942C340.534 74.1147 336.923 59.4943 329.903 46.433C322.885 33.3721 312.685 22.2921 300.248 14.2181C287.811 6.14406 273.539 1.33684 258.752 0.241101C243.965 -0.854641 229.14 1.79651 215.649 7.9493C202.159 14.1021 190.438 23.5578 181.57 35.4417C172.703 47.3255 166.975 61.2539 164.918 75.9382C162.861 90.6224 164.54 105.589 169.8 119.452L179.386 115.814C174.737 103.563 173.253 90.3378 175.071 77.3607C176.889 64.3842 181.951 52.075 189.787 41.5731C197.623 31.0711 207.982 22.7149 219.904 17.2776C231.826 11.8403 244.927 9.49742 257.995 10.4657C271.063 11.434 283.675 15.6823 294.665 22.8174C305.656 29.9526 314.67 39.7443 320.872 51.2865C327.075 62.8287 330.267 75.7495 330.153 88.8525C330.038 101.956 326.621 114.818 320.218 126.25L329.163 131.261Z" fill="#843B5B"/>
<path d="M315.411 123.615C321.181 113.285 324.313 101.692 324.532 89.8618C324.751 78.0323 322.049 66.3309 316.665 55.7953C311.281 45.2592 303.382 36.2135 293.668 29.4594C283.953 22.7053 272.722 18.4513 260.971 17.0741C249.22 15.697 237.31 17.2392 226.297 21.5643C215.284 25.8893 205.508 32.8636 197.834 41.8694C190.16 50.8754 184.826 61.6345 182.304 73.1944C179.781 84.7543 180.149 96.7574 183.374 108.142L191.86 105.738C189.031 95.7492 188.708 85.2174 190.921 75.0747C193.134 64.932 197.815 55.492 204.548 47.5897C211.281 39.6882 219.859 33.5689 229.522 29.7741C239.185 25.9793 249.634 24.6261 259.945 25.8344C270.255 27.0427 280.109 30.7752 288.633 36.7013C297.157 42.6274 304.087 50.564 308.811 59.8084C313.535 69.0527 315.905 79.3198 315.713 89.6989C315.521 100.078 312.773 110.251 307.711 119.314L315.411 123.615Z" fill="#CD6D97"/>
<path d="M251.111 149.285C264.083 149.632 276.81 145.709 287.338 138.122C297.865 130.533 305.61 119.699 309.383 107.283C313.157 94.867 312.75 81.5554 308.225 69.3931C303.7 57.2308 295.307 46.8897 284.336 39.9594C273.365 33.0289 260.422 29.8918 247.495 31.0299C234.568 32.168 222.372 37.5184 212.781 46.2594C203.189 55.0005 196.732 66.6483 194.402 79.4141C192.072 92.18 193.997 105.358 199.882 116.924L207.466 113.065C202.426 103.16 200.778 91.875 202.774 80.9423C204.769 70.0095 210.299 60.0346 218.512 52.5488C226.726 45.0636 237.171 40.4814 248.241 39.5067C259.311 38.5321 270.396 41.2186 279.791 47.154C289.187 53.0891 296.374 61.9443 300.249 72.3604C304.125 82.7759 304.473 94.1761 301.242 104.809C298.01 115.442 291.377 124.72 282.361 131.218C273.347 137.716 262.447 141.075 251.338 140.778L251.111 149.285Z" fill="#E1537D"/>
<path d="M251.346 133.69C261.619 133.964 271.679 130.731 279.87 124.522C288.059 118.314 293.89 109.501 296.4 99.535C298.911 89.5697 297.953 79.0459 293.682 69.6986C289.412 60.3508 282.085 52.7364 272.908 48.1096C263.732 43.4835 253.252 42.1211 243.198 44.2472C233.143 46.373 224.113 51.8611 217.594 59.8062C211.076 67.7508 207.458 77.6796 207.337 87.9558C207.216 98.2319 210.599 108.243 216.929 116.339L223.962 110.841C218.882 104.343 216.167 96.3083 216.264 88.0608C216.361 79.8134 219.264 71.8447 224.496 65.4685C229.727 59.0917 236.975 54.6874 245.045 52.9813C253.114 51.2747 261.524 52.3681 268.89 56.0815C276.255 59.7944 282.135 65.9053 285.562 73.4077C288.99 80.9101 289.759 89.3558 287.744 97.354C285.729 105.352 281.049 112.425 274.476 117.408C267.903 122.391 259.829 124.986 251.584 124.766L251.346 133.69Z" fill="#EBB2D2"/>
<path d="M267.863 115.119C272.241 112.603 275.93 109.046 278.605 104.764C281.28 100.482 282.857 95.6056 283.197 90.5682C283.537 85.5309 282.63 80.4872 280.555 75.884C278.481 71.2809 275.303 67.2609 271.303 64.1794C267.303 61.098 262.606 59.0504 257.626 58.218C252.646 57.3856 247.538 57.7946 242.754 59.408C237.969 61.0213 233.657 63.7897 230.198 67.4683C226.74 71.1463 224.241 75.6208 222.925 80.4952L231.38 82.7786C232.321 79.2946 234.106 76.0968 236.578 73.4677C239.051 70.8387 242.133 68.8598 245.553 67.7068C248.972 66.5534 252.623 66.2612 256.182 66.8562C259.741 67.4512 263.1 68.9144 265.958 71.1168C268.816 73.3193 271.088 76.1928 272.571 79.4827C274.054 82.7727 274.702 86.3778 274.459 89.9781C274.216 93.5789 273.088 97.0635 271.177 100.125C269.265 103.185 266.629 105.727 263.499 107.526L267.863 115.119Z" fill="#F6CADE"/>
<path d="M37.7972 184.003C18.7687 184.003 4.24316 172.237 4.24316 149.868C4.24316 127.063 18.7687 119.51 27.3388 119.51C30.9702 119.51 33.2943 120.962 33.2943 123.141C33.2943 126.482 28.2103 126.772 28.2103 134.761C28.2103 142.605 32.7133 147.544 40.2666 147.544C47.2388 147.544 52.1775 142.605 52.1775 135.488C52.1775 124.303 37.5067 113.554 37.5067 95.9781C37.5067 82.6146 46.222 69.8321 65.541 69.8321C82.536 69.8321 89.0725 80 89.0725 90.4584C89.0725 99.1737 83.9885 107.308 76.1447 111.375C74.4016 113.845 68.0104 109.051 70.044 106.437C72.8038 102.95 73.6754 92.6372 65.3958 92.6372C60.6024 92.6372 56.3899 95.5423 56.3899 102.805C55.9542 115.733 74.4016 128.515 74.4016 146.818C74.4016 168.461 59.1498 184.003 37.7972 184.003ZM95.4026 177.902C85.5252 177.902 80.4413 168.896 80.4413 155.969C80.4413 135.778 92.9333 105.274 117.917 105.274C129.538 105.274 128.957 110.794 132.733 110.794C137.527 110.794 138.544 105.274 145.371 105.274C149.147 105.274 150.455 107.453 150.455 110.649C150.455 116.169 146.678 120.672 143.482 129.096C138.544 139.7 140.141 145.51 146.533 145.51C151.471 145.51 155.103 142.75 158.008 138.102C160.187 134.616 165.997 138.974 164.544 141.734C157.427 155.242 149.438 177.902 133.314 177.902C123.292 177.902 119.079 168.751 120.822 156.695H120.241C114.431 168.461 105.716 177.902 95.4026 177.902ZM109.928 147.834C117.481 147.834 122.565 140.281 122.565 134.18C122.565 129.387 119.66 126.482 115.012 126.482C107.459 126.482 102.665 133.599 102.665 139.991C102.665 144.929 105.425 147.834 109.928 147.834ZM231.459 138.102C233.638 134.761 239.449 138.974 237.996 141.588C233.348 149.432 224.051 177.902 205.313 177.902C195.581 177.902 191.95 169.913 191.95 159.745C191.95 152.918 193.402 145.075 195.581 138.102C198.196 129.968 200.665 123.286 203.135 118.057C197.034 117.766 189.19 117.476 181.782 117.04C179.313 128.08 177.86 139.41 176.989 147.253C175.391 161.488 176.408 177.902 162.173 177.902C148.664 177.902 150.988 164.975 157.96 138.102C159.994 130.549 162.173 123.286 164.351 116.459H162.463C148.954 116.459 155.345 105.42 158.832 105.42H168.564C171.324 98.4474 174.374 92.3467 177.57 86.9722C185.268 74.335 194.419 66.7817 211.559 66.7817C219.258 66.7817 236.398 69.2511 235.817 86.3912V87.408C235.817 87.5533 235.817 87.5533 235.817 87.6985C234.8 96.4139 228.845 99.319 221.437 99.319C215.917 99.319 211.124 97.7212 209.381 93.073C207.347 87.6985 205.894 85.3744 200.229 85.3744C193.257 85.3744 188.319 94.0898 184.832 105.42L216.353 105.274H216.498C219.548 105.274 221.437 107.163 221.437 111.811C221.437 120.672 214.9 130.258 214.9 138.102C214.9 142.896 217.515 145.365 221.437 145.365C225.794 145.365 228.554 142.46 231.459 138.102ZM253.521 177.902C236.09 177.902 228.392 164.684 228.392 149.577C228.392 129.242 242.336 105.274 265.287 105.274C279.231 105.274 285.332 113.699 285.332 123.141C285.332 135.633 276.762 140.572 270.516 140.572C265.432 140.572 262.963 138.393 262.963 136.504C262.963 134.035 266.304 133.454 266.304 128.225C266.304 125.61 264.706 123.141 260.348 123.141C253.812 123.141 250.035 129.968 250.035 137.231C250.035 156.695 278.65 157.857 292.304 138.102C294.628 134.616 300.439 138.974 298.841 141.734C286.058 165.41 270.516 177.902 253.521 177.902ZM304.349 177.902C294.472 177.902 289.388 168.896 289.388 155.969C289.388 135.778 301.88 105.274 326.864 105.274C338.484 105.274 337.903 110.794 341.68 110.794C346.474 110.794 347.49 105.274 354.317 105.274C358.094 105.274 359.401 107.453 359.401 110.649C359.401 116.169 355.625 120.672 352.429 129.096C347.49 139.7 349.088 145.51 355.479 145.51C360.418 145.51 364.049 142.75 366.955 138.102C369.133 134.616 374.944 138.974 373.491 141.734C366.374 155.242 358.384 177.902 342.261 177.902C332.238 177.902 328.026 168.751 329.769 156.695H329.188C323.378 168.461 314.663 177.902 304.349 177.902ZM318.875 147.834C326.428 147.834 331.512 140.281 331.512 134.18C331.512 129.387 328.607 126.482 323.959 126.482C316.406 126.482 311.612 133.599 311.612 139.991C311.612 144.929 314.372 147.834 318.875 147.834ZM423.266 138.102C425.59 134.616 431.11 138.974 429.803 141.734C425.735 150.158 413.824 177.757 386.807 177.757C361.242 177.757 358.191 152.628 366.907 138.102L367.488 137.231C377.801 123.286 388.114 101.643 400.606 101.643C409.612 101.643 413.97 106.872 413.824 111.52C413.97 116.169 403.366 116.604 403.366 122.415C403.366 125.174 411.065 136.795 412.953 145.801C417.311 145.656 420.361 142.46 423.266 138.102ZM381.578 147.834C387.969 147.834 391.6 143.186 391.6 137.231C391.6 133.745 390.438 130.113 388.405 126.191C387.388 124.303 386.226 124.303 384.919 126.191C381.287 131.566 376.784 137.521 373.443 141.734C373.443 145.22 376.784 147.834 381.578 147.834Z" fill="#000624"/>
<path d="M50.98 184.737C33.0048 184.737 19.2832 173.623 19.2832 152.492C19.2832 130.949 33.0048 123.814 41.1005 123.814C44.5309 123.814 46.7263 125.186 46.7263 127.244C46.7263 130.4 41.9238 130.674 41.9238 138.221C41.9238 145.631 46.1775 150.296 53.3127 150.296C59.899 150.296 64.5644 145.631 64.5644 138.907C64.5644 128.342 50.7056 118.188 50.7056 101.585C50.7056 88.9608 58.9385 76.8858 77.1882 76.8858C93.2424 76.8858 99.4172 86.4909 99.4172 96.3704C99.4172 104.603 94.6146 112.287 87.205 116.129C85.5584 118.462 79.5209 113.934 81.4419 111.464C84.049 108.171 84.8723 98.4287 77.051 98.4287C72.5229 98.4287 68.5436 101.173 68.5436 108.034C68.132 120.246 85.5584 132.321 85.5584 149.61C85.5584 170.055 71.1507 184.737 50.98 184.737ZM105.397 178.974C96.0661 178.974 91.2635 170.467 91.2635 158.255C91.2635 139.182 103.064 110.366 126.665 110.366C137.642 110.366 137.094 115.581 140.661 115.581C145.189 115.581 146.15 110.366 152.599 110.366C156.167 110.366 157.401 112.425 157.401 115.443C157.401 120.658 153.834 124.911 150.815 132.87C146.15 142.887 147.659 148.375 153.697 148.375C158.362 148.375 161.792 145.768 164.537 141.377C166.595 138.084 172.084 142.2 170.711 144.808C163.988 157.569 156.441 178.974 141.21 178.974C131.742 178.974 127.763 170.33 129.41 158.941H128.861C123.372 170.055 115.139 178.974 105.397 178.974ZM119.118 150.571C126.254 150.571 131.056 143.435 131.056 137.672C131.056 133.144 128.312 130.4 123.921 130.4C116.786 130.4 112.258 137.123 112.258 143.161C112.258 147.826 114.865 150.571 119.118 150.571ZM233.923 141.377C235.981 138.221 241.47 142.2 240.098 144.67C235.707 152.08 226.925 178.974 209.224 178.974C200.031 178.974 196.6 171.427 196.6 161.822C196.6 155.373 197.972 147.964 200.031 141.377C202.5 133.693 204.833 127.381 207.166 122.441C201.403 122.167 193.993 121.893 186.995 121.481C184.662 131.909 183.29 142.612 182.467 150.022C180.958 163.469 181.918 178.974 168.471 178.974C155.71 178.974 157.905 166.762 164.492 141.377C166.413 134.242 168.471 127.381 170.529 120.932H168.745C155.984 120.932 162.022 110.504 165.315 110.504H174.508C177.116 103.917 179.997 98.1542 183.016 93.0772C190.288 81.1395 198.933 74.0043 215.124 74.0043C222.397 74.0043 238.588 76.3369 238.039 92.5284V93.4889C238.039 93.6261 238.039 93.6261 238.039 93.7633C237.079 101.996 231.453 104.741 224.455 104.741C219.241 104.741 214.713 103.231 213.066 98.8403C211.145 93.7633 209.773 91.5679 204.421 91.5679C197.835 91.5679 193.17 99.8008 189.877 110.504L219.652 110.366H219.79C222.671 110.366 224.455 112.15 224.455 116.541C224.455 124.911 218.28 133.968 218.28 141.377C218.28 145.905 220.75 148.238 224.455 148.238C228.571 148.238 231.178 145.494 233.923 141.377ZM254.764 178.974C238.298 178.974 231.025 166.488 231.025 152.217C231.025 133.007 244.198 110.366 265.878 110.366C279.051 110.366 284.814 118.325 284.814 127.244C284.814 139.045 276.718 143.71 270.818 143.71C266.015 143.71 263.683 141.652 263.683 139.868C263.683 137.535 266.838 136.986 266.838 132.046C266.838 129.577 265.329 127.244 261.213 127.244C255.038 127.244 251.47 133.693 251.47 140.554C251.47 158.941 278.502 160.038 291.4 141.377C293.596 138.084 299.084 142.2 297.575 144.808C285.5 167.174 270.818 178.974 254.764 178.974ZM302.778 178.974C293.448 178.974 288.645 170.467 288.645 158.255C288.645 139.182 300.446 110.366 324.047 110.366C335.024 110.366 334.475 115.581 338.043 115.581C342.571 115.581 343.531 110.366 349.98 110.366C353.548 110.366 354.783 112.425 354.783 115.443C354.783 120.658 351.215 124.911 348.197 132.87C343.531 142.887 345.041 148.375 351.078 148.375C355.743 148.375 359.174 145.768 361.918 141.377C363.976 138.084 369.465 142.2 368.093 144.808C361.369 157.569 353.823 178.974 338.592 178.974C329.124 178.974 325.144 170.33 326.791 158.941H326.242C320.754 170.055 312.521 178.974 302.778 178.974ZM316.5 150.571C323.635 150.571 328.438 143.435 328.438 137.672C328.438 133.144 325.693 130.4 321.302 130.4C314.167 130.4 309.639 137.123 309.639 143.161C309.639 147.826 312.246 150.571 316.5 150.571ZM415.113 141.377C417.308 138.084 422.523 142.2 421.288 144.808C417.446 152.766 406.194 178.837 380.672 178.837C356.522 178.837 353.64 155.099 361.873 141.377L362.422 140.554C372.164 127.381 381.907 106.936 393.707 106.936C402.215 106.936 406.331 111.876 406.194 116.267C406.331 120.658 396.314 121.069 396.314 126.558C396.314 129.165 403.587 140.142 405.371 148.65C409.487 148.512 412.369 145.494 415.113 141.377ZM375.732 150.571C381.769 150.571 385.2 146.18 385.2 140.554C385.2 137.261 384.102 133.83 382.181 130.125C381.221 128.342 380.123 128.342 378.888 130.125C375.458 135.202 371.204 140.828 368.048 144.808C368.048 148.101 371.204 150.571 375.732 150.571Z" fill="#EDDEE5"/>
<mask id="mask0_14_78" style="mask-type:luminance" maskUnits="userSpaceOnUse" x="15" y="70" width="411" height="119">
<path d="M425.047 70.7025H15.5439V188.086H425.047V70.7025Z" fill="white"/>
<path d="M50.98 184.737C33.0048 184.737 19.2832 173.623 19.2832 152.492C19.2832 130.949 33.0048 123.814 41.1005 123.814C44.5309 123.814 46.7263 125.186 46.7263 127.244C46.7263 130.4 41.9238 130.674 41.9238 138.221C41.9238 145.631 46.1775 150.296 53.3127 150.296C59.899 150.296 64.5644 145.631 64.5644 138.907C64.5644 128.342 50.7056 118.188 50.7056 101.585C50.7056 88.9608 58.9385 76.8858 77.1882 76.8858C93.2424 76.8858 99.4172 86.4909 99.4172 96.3705C99.4172 104.603 94.6146 112.287 87.205 116.13C85.5584 118.462 79.5209 113.934 81.4419 111.464C84.049 108.171 84.8723 98.4287 77.051 98.4287C72.5229 98.4287 68.5436 101.173 68.5436 108.034C68.132 120.246 85.5584 132.321 85.5584 149.61C85.5584 170.055 71.1507 184.737 50.98 184.737ZM105.397 178.974C96.0661 178.974 91.2635 170.467 91.2635 158.255C91.2635 139.182 103.064 110.366 126.665 110.366C137.642 110.366 137.094 115.581 140.661 115.581C145.189 115.581 146.15 110.366 152.599 110.366C156.167 110.366 157.401 112.425 157.401 115.443C157.401 120.658 153.834 124.911 150.815 132.87C146.15 142.887 147.659 148.375 153.697 148.375C158.362 148.375 161.792 145.768 164.537 141.377C166.595 138.084 172.084 142.2 170.711 144.808C163.988 157.569 156.441 178.974 141.21 178.974C131.742 178.974 127.763 170.33 129.41 158.941H128.861C123.372 170.055 115.139 178.974 105.397 178.974ZM119.118 150.571C126.254 150.571 131.056 143.435 131.056 137.672C131.056 133.144 128.312 130.4 123.921 130.4C116.786 130.4 112.258 137.124 112.258 143.161C112.258 147.826 114.865 150.571 119.118 150.571ZM233.923 141.377C235.981 138.221 241.47 142.2 240.098 144.67C235.707 152.08 226.925 178.974 209.224 178.974C200.031 178.974 196.6 171.427 196.6 161.822C196.6 155.373 197.972 147.964 200.031 141.377C202.5 133.693 204.833 127.381 207.166 122.441C201.403 122.167 193.993 121.893 186.995 121.481C184.662 131.909 183.29 142.612 182.467 150.022C180.958 163.469 181.918 178.974 168.471 178.974C155.71 178.974 157.905 166.762 164.492 141.377C166.413 134.242 168.471 127.381 170.529 120.932H168.745C155.984 120.932 162.022 110.504 165.315 110.504H174.508C177.116 103.917 179.997 98.1543 183.016 93.0773C190.288 81.1395 198.933 74.0043 215.124 74.0043C222.397 74.0043 238.588 76.337 238.039 92.5284V93.4889C238.039 93.6261 238.039 93.6261 238.039 93.7634C237.079 101.996 231.453 104.741 224.455 104.741C219.241 104.741 214.713 103.231 213.066 98.8403C211.145 93.7634 209.773 91.5679 204.421 91.5679C197.835 91.5679 193.17 99.8008 189.877 110.504L219.652 110.366H219.79C222.671 110.366 224.455 112.15 224.455 116.541C224.455 124.911 218.28 133.968 218.28 141.377C218.28 145.905 220.75 148.238 224.455 148.238C228.571 148.238 231.178 145.494 233.923 141.377ZM254.764 178.974C238.298 178.974 231.025 166.488 231.025 152.217C231.025 133.007 244.198 110.366 265.878 110.366C279.051 110.366 284.814 118.325 284.814 127.244C284.814 139.045 276.718 143.71 270.818 143.71C266.015 143.71 263.683 141.652 263.683 139.868C263.683 137.535 266.838 136.986 266.838 132.047C266.838 129.577 265.329 127.244 261.213 127.244C255.038 127.244 251.47 133.693 251.47 140.554C251.47 158.941 278.502 160.039 291.4 141.377C293.596 138.084 299.084 142.2 297.575 144.808C285.5 167.174 270.818 178.974 254.764 178.974ZM302.778 178.974C293.448 178.974 288.645 170.467 288.645 158.255C288.645 139.182 300.446 110.366 324.047 110.366C335.024 110.366 334.475 115.581 338.043 115.581C342.571 115.581 343.531 110.366 349.98 110.366C353.548 110.366 354.783 112.425 354.783 115.443C354.783 120.658 351.215 124.911 348.197 132.87C343.531 142.887 345.041 148.375 351.078 148.375C355.743 148.375 359.174 145.768 361.918 141.377C363.976 138.084 369.465 142.2 368.093 144.808C361.369 157.569 353.823 178.974 338.592 178.974C329.124 178.974 325.144 170.33 326.791 158.941H326.242C320.754 170.055 312.521 178.974 302.778 178.974ZM316.5 150.571C323.635 150.571 328.438 143.435 328.438 137.672C328.438 133.144 325.693 130.4 321.302 130.4C314.167 130.4 309.639 137.124 309.639 143.161C309.639 147.826 312.246 150.571 316.5 150.571ZM415.113 141.377C417.308 138.084 422.523 142.2 421.288 144.808C417.446 152.766 406.194 178.837 380.672 178.837C356.522 178.837 353.64 155.099 361.873 141.377L362.422 140.554C372.164 127.381 381.907 106.936 393.707 106.936C402.215 106.936 406.331 111.876 406.194 116.267C406.331 120.658 396.314 121.069 396.314 126.558C396.314 129.165 403.587 140.142 405.371 148.65C409.487 148.512 412.369 145.494 415.113 141.377ZM375.732 150.571C381.769 150.571 385.2 146.18 385.2 140.554C385.2 137.261 384.102 133.83 382.181 130.126C381.221 128.342 380.123 128.342 378.888 130.126C375.458 135.202 371.204 140.828 368.048 144.808C368.048 148.101 371.204 150.571 375.732 150.571Z" fill="black"/>
</mask>
<g mask="url(#mask0_14_78)">
<path d="M87.2046 116.129L85.7242 113.274L85.029 113.635L84.5772 114.275L87.2046 116.129ZM81.4416 111.464L78.9202 109.468L78.9117 109.479L78.9031 109.49L81.4416 111.464ZM68.5433 108.034L71.7577 108.142L71.7593 108.088V108.034H68.5433ZM50.9797 181.521C42.6466 181.521 35.5762 178.952 30.6113 174.212C25.6735 169.498 22.4989 162.333 22.4989 152.492H16.0669C16.0669 163.781 19.753 172.739 26.1698 178.865C32.5596 184.965 41.3375 187.953 50.9797 187.953V181.521ZM22.4989 152.492C22.4989 142.445 25.6756 136.131 29.4384 132.339C33.272 128.476 37.9024 127.03 41.1002 127.03V120.598C36.2022 120.598 29.924 122.719 24.8729 127.809C19.7509 132.97 16.0669 140.995 16.0669 152.492H22.4989ZM41.1002 127.03C42.4419 127.03 43.205 127.306 43.5165 127.497C43.6547 127.582 43.6446 127.612 43.5969 127.536C43.539 127.443 43.51 127.327 43.51 127.244H49.942C49.942 124.883 48.6154 123.08 46.8825 122.016C45.2386 121.007 43.189 120.598 41.1002 120.598V127.03ZM43.51 127.244C43.51 127.086 43.6156 127.022 43.4232 127.273C43.301 127.432 43.1338 127.621 42.8505 127.925C42.5947 128.2 42.2346 128.581 41.8788 128.998C40.2545 130.901 38.7075 133.576 38.7075 138.221H45.1395C45.1395 135.319 45.9938 134.084 46.7705 133.174C47.0155 132.888 47.2556 132.634 47.5622 132.303C47.842 132.002 48.2 131.614 48.528 131.186C49.2361 130.262 49.942 128.98 49.942 127.244H43.51ZM38.7075 138.221C38.7075 142.529 39.9509 146.406 42.5925 149.233C45.2601 152.088 49.0185 153.512 53.3124 153.512V147.08C50.471 147.08 48.535 146.172 47.292 144.842C46.0228 143.484 45.1395 141.323 45.1395 138.221H38.7075ZM53.3124 153.512C57.3865 153.512 61.0463 152.056 63.692 149.387C66.3366 146.72 67.78 143.031 67.78 138.907H61.3481C61.3481 141.507 60.4588 143.513 59.1242 144.859C57.7906 146.204 55.8246 147.08 53.3124 147.08V153.512ZM67.78 138.907C67.78 135.571 66.6877 132.446 65.2962 129.557C63.923 126.707 62.0738 123.735 60.4122 120.889C56.9824 115.014 53.9213 108.967 53.9213 101.585H47.4893C47.4893 110.805 51.3576 118.137 54.8571 124.131C56.6602 127.219 58.2757 129.804 59.501 132.349C60.7081 134.854 61.3481 136.961 61.3481 138.907H67.78ZM53.9213 101.585C53.9213 95.9518 55.756 90.6133 59.4415 86.7091C63.0863 82.8483 68.8124 80.1018 77.1879 80.1018V73.6698C67.3137 73.6698 59.7985 76.9609 54.7644 82.2935C49.771 87.5827 47.4893 94.5936 47.4893 101.585H53.9213ZM77.1879 80.1018C84.5573 80.1018 89.2077 82.2882 92.0217 85.1702C94.8651 88.0823 96.2008 92.0808 96.2008 96.3704H102.633C102.633 90.7805 100.881 85.0368 96.6237 80.6764C92.3368 76.286 85.8727 73.6698 77.1879 73.6698V80.1018ZM96.2008 96.3704C96.2008 103.359 92.1069 109.965 85.7242 113.274L88.6851 118.985C97.1217 114.61 102.633 105.848 102.633 96.3704H96.2008ZM84.5772 114.275C84.6822 114.126 84.8237 113.98 84.9974 113.858C85.17 113.737 85.342 113.661 85.4911 113.617C85.7735 113.533 85.9354 113.571 85.8968 113.565C85.8668 113.559 85.7494 113.531 85.5581 113.438C85.3731 113.348 85.1662 113.22 84.9615 113.061C84.7573 112.902 84.5836 112.733 84.4523 112.576C84.3167 112.414 84.2604 112.307 84.2465 112.275C84.2315 112.24 84.2942 112.362 84.2829 112.61C84.2775 112.739 84.2518 112.888 84.1955 113.044C84.1387 113.201 84.0615 113.334 83.9801 113.439L78.9031 109.49C77.4688 111.334 77.7314 113.43 78.3537 114.852C78.9497 116.215 79.9863 117.338 81.009 118.135C82.0306 118.931 83.3562 119.648 84.7819 119.899C86.2222 120.153 88.4267 119.975 89.8321 117.984L84.5772 114.275ZM83.9629 113.46C84.9942 112.158 85.6937 110.452 86.0871 108.77C86.4875 107.056 86.6306 105.108 86.3342 103.214C86.0383 101.325 85.2681 99.2911 83.6569 97.7083C81.9888 96.0692 79.7221 95.2127 77.0507 95.2127V101.645C78.2899 101.645 78.8533 102.006 79.1491 102.296C79.5018 102.643 79.8293 103.251 79.9794 104.209C80.1289 105.162 80.0662 106.267 79.8234 107.306C79.5736 108.377 79.1925 109.124 78.9202 109.468L83.9629 113.46ZM77.0507 95.2127C74.1525 95.2127 71.1365 96.0982 68.8376 98.3719C66.5188 100.665 65.3273 103.976 65.3273 108.034H71.7593C71.7593 105.231 72.5574 103.739 73.3603 102.945C74.1831 102.131 75.4207 101.645 77.0507 101.645V95.2127ZM65.3289 107.926C65.2003 111.755 66.4738 115.367 68.1579 118.701C69.8297 122.01 72.097 125.395 74.1901 128.655C78.5231 135.405 82.3421 142.017 82.3421 149.61H88.774C88.774 139.914 83.8798 131.844 79.6026 125.181C77.3905 121.735 75.3784 118.73 73.8985 115.801C72.4309 112.895 71.6805 110.418 71.7577 108.142L65.3289 107.926ZM82.3421 149.61C82.3421 168.33 69.3237 181.521 50.9797 181.521V187.953C72.9771 187.953 88.774 171.781 88.774 149.61H82.3421ZM150.815 132.87L153.73 134.227L153.78 134.121L153.822 134.01L150.815 132.87ZM170.711 144.808L173.556 146.307L173.557 146.305L170.711 144.808ZM129.409 158.941L132.592 159.401L133.124 155.725H129.409V158.941ZM128.86 158.941V155.725H126.862L125.977 157.517L128.86 158.941ZM105.396 175.758C101.885 175.758 99.3397 174.238 97.5301 171.446C95.6209 168.499 94.4792 164.008 94.4792 158.255H88.0472C88.0472 164.714 89.3068 170.582 92.1315 174.942C95.056 179.457 99.5776 182.19 105.396 182.19V175.758ZM94.4792 158.255C94.4792 149.276 97.2836 137.893 102.853 128.844C108.406 119.819 116.371 113.582 126.665 113.582V107.15C113.358 107.15 103.622 115.321 97.3747 125.472C91.1432 135.599 88.0472 148.161 88.0472 158.255H94.4792ZM126.665 113.582C131.552 113.582 133.436 114.713 134.471 115.515C134.783 115.756 135.064 116.008 135.392 116.307C135.687 116.576 136.098 116.959 136.525 117.294C137.498 118.059 138.815 118.797 140.661 118.797V112.365C140.63 112.365 140.663 112.364 140.705 112.381C140.725 112.389 140.671 112.372 140.5 112.238C140.305 112.084 140.101 111.897 139.726 111.555C139.384 111.242 138.941 110.842 138.412 110.432C136.085 108.627 132.755 107.15 126.665 107.15V113.582ZM140.661 118.797C144.295 118.797 146.614 116.54 147.931 115.475C149.327 114.346 150.465 113.582 152.599 113.582V107.15C148.283 107.15 145.716 108.994 143.888 110.473C141.98 112.015 141.554 112.365 140.661 112.365V118.797ZM152.599 113.582C153.19 113.582 153.524 113.669 153.688 113.733C153.831 113.788 153.869 113.834 153.883 113.85C153.935 113.913 154.185 114.289 154.185 115.443H160.617C160.617 113.579 160.249 111.417 158.793 109.695C157.247 107.869 155.008 107.15 152.599 107.15V113.582ZM154.185 115.443C154.185 117.303 153.562 119.127 152.327 121.763C151.146 124.286 149.374 127.6 147.808 131.729L153.822 134.01C155.274 130.181 156.796 127.389 158.153 124.492C159.456 121.708 160.617 118.798 160.617 115.443H154.185ZM147.9 131.512C145.493 136.678 144.324 141.357 145.094 145.037C145.504 146.994 146.483 148.742 148.144 149.957C149.764 151.141 151.719 151.591 153.696 151.591V145.159C152.655 145.159 152.158 144.923 151.941 144.765C151.767 144.638 151.529 144.387 151.39 143.721C151.062 142.152 151.471 139.079 153.73 134.227L147.9 131.512ZM153.696 151.591C159.86 151.591 164.173 148.026 167.264 143.082L161.809 139.673C159.411 143.51 156.863 145.159 153.696 145.159V151.591ZM167.264 143.082C167.267 143.077 167.252 143.101 167.213 143.14C167.173 143.179 167.118 143.222 167.049 143.262C166.902 143.346 166.773 143.367 166.712 143.369C166.662 143.372 166.685 143.362 166.784 143.394C166.881 143.424 167.014 143.484 167.163 143.58C167.311 143.676 167.446 143.79 167.555 143.906C167.666 144.024 167.722 144.116 167.743 144.157C167.766 144.201 167.725 144.141 167.715 143.982C167.703 143.802 167.737 143.553 167.865 143.31L173.557 146.305C174.536 144.446 174.139 142.555 173.486 141.26C172.835 139.971 171.786 138.91 170.657 138.18C169.539 137.456 168.047 136.868 166.413 136.944C164.618 137.028 162.905 137.919 161.809 139.673L167.264 143.082ZM167.866 143.308C164.297 150.081 160.996 158.111 156.475 164.893C151.981 171.634 147.125 175.758 141.21 175.758V182.19C150.525 182.19 157.059 175.612 161.826 168.46C166.568 161.348 170.401 152.295 173.556 146.307L167.866 143.308ZM141.21 175.758C137.639 175.758 135.362 174.227 133.959 171.678C132.443 168.923 131.827 164.697 132.592 159.401L126.226 158.48C125.345 164.573 125.895 170.364 128.324 174.778C130.866 179.399 135.312 182.19 141.21 182.19V175.758ZM129.409 155.725H128.86V162.157H129.409V155.725ZM125.977 157.517C123.349 162.839 120.134 167.481 116.554 170.751C112.983 174.013 109.228 175.758 105.396 175.758V182.19C111.307 182.19 116.54 179.476 120.893 175.5C125.237 171.532 128.883 166.157 131.744 160.365L125.977 157.517ZM119.118 153.787C123.836 153.787 127.666 151.414 130.23 148.345C132.762 145.315 134.272 141.374 134.272 137.672H127.84C127.84 139.734 126.948 142.242 125.295 144.221C123.674 146.16 121.535 147.355 119.118 147.355V153.787ZM134.272 137.672C134.272 134.756 133.376 132.058 131.425 130.08C129.469 128.097 126.795 127.184 123.921 127.184V133.616C125.437 133.616 126.331 134.075 126.845 134.596C127.363 135.122 127.84 136.061 127.84 137.672H134.272ZM123.921 127.184C114.477 127.184 109.041 135.93 109.041 143.161H115.473C115.473 138.317 119.093 133.616 123.921 133.616V127.184ZM109.041 143.161C109.041 146.077 109.862 148.794 111.741 150.809C113.644 152.85 116.278 153.787 119.118 153.787V147.355C117.704 147.355 116.908 146.919 116.444 146.422C115.956 145.898 115.473 144.91 115.473 143.161H109.041ZM233.923 141.377L236.598 143.161L236.607 143.148L236.616 143.134L233.923 141.377ZM240.097 144.67L242.864 146.31L242.887 146.271L242.909 146.232L240.097 144.67ZM200.03 141.377L196.969 140.393L196.964 140.405L196.961 140.418L200.03 141.377ZM207.165 122.441L210.073 123.815L212.131 119.458L207.318 119.229L207.165 122.441ZM186.995 121.481L187.183 118.27L184.454 118.11L183.856 120.779L186.995 121.481ZM182.467 150.022L185.663 150.38V150.377L182.467 150.022ZM164.491 141.377L161.386 140.541L161.382 140.555L161.378 140.569L164.491 141.377ZM170.529 120.932L173.593 121.91L174.931 117.716H170.529V120.932ZM174.508 110.504V113.72H176.694L177.498 111.687L174.508 110.504ZM183.015 93.0773L180.269 91.4039L180.26 91.4189L180.251 91.4339L183.015 93.0773ZM238.039 92.5284L234.825 92.4196L234.823 92.4737V92.5284H238.039ZM238.039 93.7633L241.234 94.1359L241.255 93.9504V93.7633H238.039ZM213.066 98.8403L216.077 97.711L216.075 97.7067L216.074 97.7024L213.066 98.8403ZM189.876 110.504L186.802 109.558L185.516 113.74L189.891 113.72L189.876 110.504ZM219.652 110.366V107.15H219.645H219.637L219.652 110.366ZM236.616 143.134C236.601 143.157 236.527 143.251 236.378 143.333C236.237 143.41 236.121 143.425 236.08 143.426C236.049 143.427 236.087 143.421 236.197 143.455C236.304 143.488 236.443 143.549 236.594 143.643C236.746 143.737 236.88 143.847 236.986 143.956C237.095 144.067 237.144 144.147 237.156 144.17C237.17 144.196 237.115 144.106 237.102 143.906C237.095 143.802 237.099 143.672 237.13 143.527C237.161 143.38 237.215 143.237 237.286 143.108L242.909 146.232C243.95 144.357 243.516 142.442 242.846 141.17C242.18 139.907 241.118 138.883 239.998 138.185C238.884 137.491 237.414 136.934 235.817 137C234.075 137.072 232.354 137.895 231.229 139.62L236.616 143.134ZM237.33 143.031C236.139 145.042 234.648 148.368 233.013 151.76C231.312 155.288 229.319 159.2 226.953 162.852C222.088 170.359 216.306 175.758 209.224 175.758V182.19C219.842 182.19 227.301 174.142 232.35 166.35C234.941 162.352 237.073 158.151 238.807 154.553C240.607 150.818 241.86 148.004 242.864 146.31L237.33 143.031ZM209.224 175.758C205.672 175.758 203.551 174.386 202.161 172.247C200.635 169.901 199.816 166.33 199.816 161.822H193.384C193.384 166.92 194.279 171.924 196.768 175.753C199.391 179.789 203.582 182.19 209.224 182.19V175.758ZM199.816 161.822C199.816 155.777 201.112 148.697 203.1 142.337L196.961 140.418C194.832 147.23 193.384 154.97 193.384 161.822H199.816ZM203.092 142.361C205.545 134.73 207.828 128.57 210.073 123.815L204.258 121.068C201.838 126.192 199.455 132.656 196.969 140.393L203.092 142.361ZM207.318 119.229C201.504 118.952 194.16 118.681 187.183 118.27L186.806 124.692C193.825 125.104 201.301 125.382 207.013 125.654L207.318 119.229ZM183.856 120.779C181.485 131.379 180.098 142.219 179.27 149.666L185.663 150.377C186.482 143.005 187.839 132.439 190.133 122.183L183.856 120.779ZM179.27 149.663C178.898 152.979 178.643 156.783 178.334 159.901C178.006 163.204 177.586 166.157 176.859 168.636C176.131 171.119 175.171 172.853 173.951 173.965C172.809 175.007 171.161 175.758 168.471 175.758V182.19C172.504 182.19 175.778 181.004 178.285 178.718C180.714 176.503 182.13 173.519 183.032 170.445C183.934 167.367 184.398 163.923 184.734 160.536C185.089 156.965 185.28 153.788 185.663 150.38L179.27 149.663ZM168.471 175.758C165.749 175.758 164.501 175.109 163.855 174.438C163.163 173.72 162.539 172.341 162.44 169.58C162.237 163.927 164.268 155.045 167.604 142.185L161.378 140.569C158.129 153.095 155.769 163.011 156.012 169.81C156.136 173.276 156.944 176.536 159.224 178.901C161.549 181.313 164.812 182.19 168.471 182.19V175.758ZM167.597 142.213C169.502 135.134 171.546 128.322 173.593 121.91L167.465 119.954C165.395 126.441 163.322 133.35 161.386 140.541L167.597 142.213ZM170.529 117.716H168.745V124.148H170.529V117.716ZM168.745 117.716C165.893 117.716 164.764 117.117 164.417 116.828C164.241 116.683 164.146 116.551 164.201 116.117C164.271 115.558 164.604 114.82 165.119 114.214C165.363 113.926 165.576 113.755 165.7 113.677C165.857 113.58 165.716 113.72 165.315 113.72V107.288C164.09 107.288 163.04 107.753 162.286 108.226C161.499 108.719 160.8 109.363 160.215 110.052C159.07 111.401 158.074 113.27 157.818 115.319C157.547 117.492 158.13 119.967 160.307 121.777C162.315 123.444 165.217 124.148 168.745 124.148V117.716ZM165.315 113.72H174.508V107.288H165.315V113.72ZM177.498 111.687C180.043 105.259 182.849 99.6502 185.78 94.7206L180.251 91.4339C177.145 96.6583 174.188 102.575 171.518 109.32L177.498 111.687ZM185.762 94.7507C189.263 89.0037 192.935 84.6819 197.464 81.7693C201.951 78.8835 207.53 77.2203 215.124 77.2203V70.7883C206.526 70.7883 199.687 72.6927 193.986 76.3589C188.327 79.9984 184.041 85.2131 180.269 91.4039L185.762 94.7507ZM215.124 77.2203C218.533 77.2203 223.787 77.7847 228.001 80.0321C230.064 81.1325 231.79 82.5883 232.983 84.5034C234.163 86.3982 234.943 88.9361 234.825 92.4196L241.253 92.6372C241.409 88.0249 240.371 84.1995 238.443 81.1031C236.526 78.027 233.853 75.8637 231.028 74.357C225.465 71.3902 218.987 70.7883 215.124 70.7883V77.2203ZM234.823 92.5284V93.4889H241.255V92.5284H234.823ZM234.823 93.4889V93.4895V93.4905V93.4911V93.4921V93.4937V93.4943V93.4953V93.497V93.4975V93.4986V93.4991V93.5007V93.5012V93.5023V93.5034V93.5045V93.505V93.5061V93.5071V93.5082V93.5093V93.5104V93.5114V93.5125V93.513V93.5146V93.5152V93.5168V93.5173V93.5189V93.5195V93.52V93.5216V93.5222V93.5232V93.5243V93.5254V93.527V93.5275V93.528V93.5291V93.5302V93.5313V93.5323V93.5334V93.5345V93.535V93.5361V93.5372V93.5382V93.5393V93.5404V93.5414V93.5425V93.5431V93.5441V93.5452V93.5468V93.5473V93.5484V93.5495V93.55V93.5511V93.5522V93.5532V93.5543V93.5559V93.5564V93.557V93.5581V93.5591V93.5602V93.5613V93.5623V93.5634V93.5645V93.565V93.5661V93.5672V93.5682V93.5693V93.5704V93.5715V93.572V93.5731V93.5741V93.5752V93.5763V93.5774V93.5784V93.5795V93.58V93.5811V93.5822V93.5833V93.5843V93.5854V93.5865V93.587V93.5881V93.5891V93.5902V93.5913V93.5924V93.5934V93.5945V93.595V93.5961V93.5972V93.5983V93.5993V93.6004V93.6015V93.602V93.6031V93.6042V93.6052V93.6063V93.6074V93.6084V93.6095V93.6101V93.6111V93.6122V93.6133V93.6143V93.6154V93.6165V93.617V93.6181V93.6192V93.6202V93.6213V93.6224V93.6235V93.624V93.6251V93.6261V93.6272V93.6283V93.6293V93.6304V93.6315V93.632V93.6331V93.6342V93.6352V93.6363V93.6374V93.6385V93.639V93.6401V93.6411V93.6422V93.6433V93.6444V93.6454V93.6465V93.647V93.6481V93.6492V93.6503V93.6513V93.6524V93.6535V93.654V93.6551V93.6561V93.6572V93.6583V93.6594V93.6604V93.6615V93.662V93.6631V93.6642V93.6653V93.6663V93.6674V93.6685V93.669V93.6701V93.6712V93.6722V93.6733V93.6744V93.6754V93.6765V93.6771V93.6781V93.6792V93.6803V93.6813V93.6824V93.6835V93.684V93.6851V93.6862V93.6872V93.6883V93.6894V93.6905V93.691V93.6921V93.6931V93.6942V93.6953V93.6963V93.6974V93.6985V93.699V93.7001V93.7012V93.7022V93.7033V93.7044V93.7055V93.706V93.7071V93.7081V93.7092V93.7103V93.7114V93.7124V93.7135V93.714V93.7151V93.7167V93.7173V93.7183V93.7199V93.7205V93.721V93.7221V93.7231V93.7242V93.7253V93.7264V93.7274V93.729V93.7301V93.7317V93.7323V93.7333V93.7344V93.7355V93.7365V93.7371V93.7387V93.7392V93.7408V93.7414V93.743V93.7435V93.7441V93.7451V93.7462V93.7473V93.7489V93.7494V93.751V93.7526V93.7532V93.7548V93.7553V93.7564V93.758V93.7596V93.7601V93.7612V93.7623V93.7633H241.255V93.7623V93.7617V93.7601V93.7596V93.7585V93.7569V93.7553V93.7548V93.7537V93.7526V93.7516V93.7499V93.7489V93.7478V93.7462V93.7457V93.7441V93.7435V93.743V93.7419V93.7408V93.7398V93.7387V93.7376V93.7365V93.7355V93.7349V93.7333V93.7328V93.7317V93.7306V93.7296V93.728V93.7269V93.7253V93.7248V93.7237V93.7221V93.7215V93.7205V93.7199V93.7189V93.7178V93.7167V93.7156V93.7146V93.7135V93.713V93.7114V93.7108V93.7097V93.7087V93.7076V93.706V93.7055V93.7049V93.7038V93.7028V93.7017V93.7006V93.6996V93.6985V93.698V93.6963V93.6958V93.6947V93.6937V93.6926V93.6915V93.6905V93.6899V93.6888V93.6878V93.6867V93.6856V93.6846V93.6835V93.6829V93.6819V93.6808V93.6797V93.6787V93.6776V93.6765V93.676V93.6749V93.6738V93.6728V93.6717V93.6706V93.6695V93.6685V93.6679V93.6669V93.6658V93.6647V93.6636V93.6626V93.6615V93.661V93.6599V93.6588V93.6578V93.6567V93.6556V93.6545V93.6535V93.6529V93.6519V93.6508V93.6497V93.6486V93.6476V93.6465V93.646V93.6449V93.6438V93.6427V93.6417V93.6406V93.6395V93.6385V93.6379V93.6368V93.6358V93.6347V93.6336V93.6326V93.6315V93.631V93.6299V93.6288V93.6277V93.6267V93.6256V93.6245V93.6235V93.6229V93.6218V93.6208V93.6197V93.6186V93.6176V93.6165V93.6159V93.6149V93.6138V93.6127V93.6117V93.6106V93.6095V93.609V93.6079V93.6068V93.6058V93.6047V93.6036V93.6025V93.6015V93.6009V93.5999V93.5988V93.5977V93.5966V93.5956V93.5945V93.594V93.5929V93.5918V93.5908V93.5897V93.5886V93.5875V93.5865V93.5859V93.5849V93.5838V93.5827V93.5816V93.5806V93.5795V93.579V93.5779V93.5768V93.5757V93.5747V93.5736V93.5725V93.5715V93.5709V93.5698V93.5688V93.5677V93.5666V93.5656V93.5645V93.564V93.5629V93.5618V93.5607V93.5597V93.5586V93.5575V93.5564V93.5559V93.5548V93.5538V93.5527V93.5516V93.5506V93.5495V93.5489V93.5479V93.5468V93.5457V93.5447V93.5436V93.5425V93.542V93.5404V93.5398V93.5388V93.5377V93.5361V93.5355V93.5345V93.5339V93.5323V93.5318V93.5307V93.5291V93.5286V93.5275V93.527V93.5259V93.5248V93.5232V93.5227V93.5216V93.5205V93.5195V93.5189V93.5179V93.5168V93.5157V93.5146V93.5136V93.5125V93.5114V93.5109V93.5093V93.5087V93.5071V93.5066V93.505V93.5045V93.5034V93.5028V93.5012V93.5007V93.4996V93.4986V93.4975V93.497V93.4959V93.4943V93.4937V93.4927V93.4911V93.4905V93.4895V93.4889H234.823ZM234.844 93.3908C234.45 96.7698 233.18 98.6238 231.642 99.7226C229.993 100.9 227.592 101.525 224.455 101.525V107.957C228.315 107.957 232.227 107.209 235.38 104.956C238.645 102.624 240.667 98.9899 241.234 94.1359L234.844 93.3908ZM224.455 101.525C219.588 101.525 216.981 100.121 216.077 97.711L210.054 99.9697C212.444 106.342 218.893 107.957 224.455 107.957V101.525ZM216.074 97.7024C215.141 95.2363 214.102 92.7246 212.239 90.9633C210.161 88.9994 207.538 88.3519 204.421 88.3519V94.7839C206.656 94.7839 207.394 95.2341 207.821 95.6372C208.461 96.2429 209.07 97.3674 210.058 99.9783L216.074 97.7024ZM204.421 88.3519C199.617 88.3519 195.959 91.3873 193.288 95.1655C190.599 98.9684 188.489 104.078 186.802 109.558L192.95 111.45C194.557 106.227 196.426 101.868 198.54 98.8789C200.671 95.865 202.639 94.7839 204.421 94.7839V88.3519ZM189.891 113.72L219.667 113.582L219.637 107.15L189.861 107.288L189.891 113.72ZM219.652 113.582H219.789V107.15H219.652V113.582ZM219.789 113.582C220.532 113.582 220.661 113.779 220.704 113.832C220.851 114.013 221.239 114.698 221.239 116.541H227.671C227.671 113.993 227.166 111.591 225.701 109.782C224.132 107.846 221.928 107.15 219.789 107.15V113.582ZM221.239 116.541C221.239 120.061 219.927 123.878 218.346 128.218C216.874 132.257 215.064 136.978 215.064 141.377H221.496C221.496 138.367 222.773 134.855 224.389 130.42C225.895 126.288 227.671 121.392 227.671 116.541H221.239ZM215.064 141.377C215.064 144.209 215.843 146.803 217.635 148.709C219.448 150.637 221.915 151.454 224.455 151.454V145.022C223.289 145.022 222.669 144.673 222.321 144.303C221.952 143.91 221.496 143.073 221.496 141.377H215.064ZM224.455 151.454C230.372 151.454 233.824 147.322 236.598 143.161L231.247 139.593C228.532 143.665 226.77 145.022 224.455 145.022V151.454ZM291.4 141.377L294.045 143.205L294.06 143.184L294.076 143.161L291.4 141.377ZM297.574 144.808L294.791 143.196L294.767 143.238L294.744 143.28L297.574 144.808ZM254.763 175.758C247.438 175.758 242.463 173.029 239.243 168.953C235.938 164.771 234.241 158.857 234.241 152.217H227.809C227.809 159.848 229.748 167.312 234.196 172.941C238.728 178.676 245.623 182.19 254.763 182.19V175.758ZM234.241 152.217C234.241 143.283 237.323 133.498 242.9 126.009C248.445 118.563 256.279 113.582 265.878 113.582V107.15C253.796 107.15 244.203 113.49 237.742 122.167C231.313 130.801 227.809 141.942 227.809 152.217H234.241ZM265.878 113.582C271.801 113.582 275.645 115.355 278.005 117.728C280.386 120.122 281.597 123.468 281.597 127.244H288.029C288.029 122.101 286.36 117.008 282.565 113.193C278.751 109.357 273.127 107.15 265.878 107.15V113.582ZM281.597 127.244C281.597 132.353 279.872 135.601 277.805 137.578C275.67 139.62 272.979 140.494 270.817 140.494V146.926C274.556 146.926 278.863 145.467 282.251 142.226C285.707 138.921 288.029 133.935 288.029 127.244H281.597ZM270.817 140.494C268.844 140.494 267.694 140.067 267.15 139.728C266.562 139.362 266.898 139.294 266.898 139.868H260.466C260.466 142.225 261.969 144.079 263.748 145.187C265.571 146.323 267.988 146.926 270.817 146.926V140.494ZM266.898 139.868C266.898 140.1 266.791 140.233 266.875 140.105C267.108 139.745 267.19 139.717 267.828 138.871C268.927 137.413 270.054 135.379 270.054 132.047H263.622C263.622 133.654 263.171 134.364 262.692 134.998C262.542 135.199 261.835 136.054 261.476 136.608C260.968 137.393 260.466 138.469 260.466 139.868H266.898ZM270.054 132.047C270.054 130.173 269.474 128.076 267.843 126.445C266.195 124.797 263.879 124.028 261.212 124.028V130.46C262.662 130.46 263.159 130.858 263.295 130.993C263.447 131.146 263.622 131.45 263.622 132.047H270.054ZM261.212 124.028C256.844 124.028 253.491 126.363 251.359 129.529C249.269 132.631 248.254 136.616 248.254 140.554H254.686C254.686 137.631 255.455 134.961 256.693 133.123C257.888 131.35 259.405 130.46 261.212 130.46V124.028ZM248.254 140.554C248.254 146.008 250.292 150.431 253.776 153.483C257.195 156.478 261.752 157.937 266.506 158.074C275.994 158.345 286.994 153.408 294.045 143.205L288.754 139.549C282.907 148.007 273.943 151.852 266.69 151.644C263.074 151.54 260.067 150.443 258.015 148.645C256.027 146.903 254.686 144.294 254.686 140.554H248.254ZM294.076 143.161C294.085 143.147 294.038 143.218 293.914 143.286C293.794 143.353 293.691 143.368 293.649 143.37C293.618 143.371 293.652 143.365 293.753 143.396C293.854 143.428 293.985 143.487 294.129 143.58C294.273 143.672 294.4 143.781 294.499 143.888C294.6 143.998 294.645 144.077 294.656 144.101C294.668 144.126 294.623 144.045 294.618 143.866C294.612 143.665 294.662 143.419 294.791 143.196L300.358 146.419C301.419 144.586 301.103 142.668 300.454 141.317C299.819 139.993 298.76 138.915 297.624 138.18C296.491 137.447 294.993 136.87 293.357 136.944C291.579 137.025 289.865 137.882 288.724 139.593L294.076 143.161ZM294.744 143.28C282.871 165.273 269.034 175.758 254.763 175.758V182.19C272.601 182.19 288.128 169.075 300.405 146.335L294.744 143.28ZM348.196 132.87L351.112 134.227L351.161 134.121L351.203 134.01L348.196 132.87ZM368.093 144.808L370.938 146.307L370.939 146.305L368.093 144.808ZM326.791 158.941L329.973 159.401L330.505 155.725H326.791V158.941ZM326.242 158.941V155.725H324.243L323.358 157.517L326.242 158.941ZM302.778 175.758C299.266 175.758 296.721 174.238 294.912 171.446C293.002 168.499 291.861 164.008 291.861 158.255H285.429C285.429 164.714 286.688 170.582 289.513 174.942C292.437 179.457 296.959 182.19 302.778 182.19V175.758ZM291.861 158.255C291.861 149.276 294.665 137.893 300.234 128.844C305.788 119.819 313.753 113.582 324.046 113.582V107.15C310.739 107.15 301.003 115.321 294.756 125.472C288.525 135.599 285.429 148.161 285.429 158.255H291.861ZM324.046 113.582C328.934 113.582 330.818 114.713 331.852 115.515C332.164 115.756 332.446 116.008 332.774 116.307C333.068 116.576 333.48 116.959 333.907 117.294C334.88 118.059 336.197 118.797 338.042 118.797V112.365C338.011 112.365 338.045 112.364 338.086 112.381C338.107 112.389 338.053 112.372 337.882 112.238C337.686 112.084 337.483 111.897 337.108 111.555C336.765 111.242 336.322 110.842 335.794 110.432C333.467 108.627 330.136 107.15 324.046 107.15V113.582ZM338.042 118.797C341.677 118.797 343.995 116.54 345.313 115.475C346.708 114.346 347.846 113.582 349.98 113.582V107.15C345.665 107.15 343.098 108.994 341.269 110.473C339.362 112.015 338.936 112.365 338.042 112.365V118.797ZM349.98 113.582C350.571 113.582 350.906 113.669 351.07 113.733C351.213 113.788 351.25 113.834 351.264 113.85C351.317 113.913 351.567 114.289 351.567 115.443H357.999C357.999 113.579 357.631 111.417 356.174 109.695C354.628 107.869 352.39 107.15 349.98 107.15V113.582ZM351.567 115.443C351.567 117.303 350.944 119.127 349.709 121.763C348.528 124.286 346.756 127.6 345.189 131.729L351.203 134.01C352.656 130.181 354.177 127.389 355.534 124.492C356.838 121.708 357.999 118.798 357.999 115.443H351.567ZM345.281 131.512C342.875 136.678 341.706 141.357 342.476 145.037C342.885 146.994 343.865 148.742 345.526 149.957C347.145 151.141 349.1 151.591 351.078 151.591V145.159C350.037 145.159 349.539 144.923 349.323 144.765C349.149 144.638 348.911 144.387 348.771 143.721C348.443 142.152 348.852 139.079 351.112 134.227L345.281 131.512ZM351.078 151.591C357.242 151.591 361.555 148.026 364.645 143.082L359.191 139.673C356.793 143.51 354.245 145.159 351.078 145.159V151.591ZM364.645 143.082C364.648 143.077 364.633 143.101 364.594 143.14C364.555 143.179 364.5 143.222 364.431 143.262C364.284 143.346 364.155 143.367 364.094 143.369C364.044 143.372 364.067 143.362 364.166 143.394C364.263 143.424 364.396 143.484 364.544 143.58C364.693 143.676 364.828 143.79 364.937 143.906C365.048 144.024 365.104 144.116 365.125 144.157C365.147 144.201 365.107 144.141 365.096 143.982C365.085 143.802 365.118 143.553 365.246 143.31L370.939 146.305C371.918 144.446 371.521 142.555 370.867 141.26C370.217 139.971 369.167 138.91 368.039 138.18C366.921 137.456 365.429 136.868 363.794 136.944C361.999 137.028 360.287 137.919 359.191 139.673L364.645 143.082ZM365.248 143.308C361.679 150.081 358.377 158.111 353.856 164.893C349.362 171.634 344.507 175.758 338.591 175.758V182.19C347.907 182.19 354.44 175.612 359.208 168.46C363.949 161.348 367.783 152.295 370.938 146.307L365.248 143.308ZM338.591 175.758C335.021 175.758 332.743 174.227 331.341 171.678C329.825 168.923 329.208 164.697 329.973 159.401L323.608 158.48C322.727 164.573 323.276 170.364 325.705 174.778C328.248 179.399 332.694 182.19 338.591 182.19V175.758ZM326.791 155.725H326.242V162.157H326.791V155.725ZM323.358 157.517C320.73 162.839 317.516 167.481 313.936 170.751C310.364 174.013 306.609 175.758 302.778 175.758V182.19C308.689 182.19 313.921 179.476 318.274 175.5C322.618 171.532 326.265 166.157 329.125 160.365L323.358 157.517ZM316.5 153.787C321.218 153.787 325.048 151.414 327.612 148.345C330.143 145.315 331.653 141.374 331.653 137.672H325.221C325.221 139.734 324.33 142.242 322.676 144.221C321.056 146.16 318.916 147.355 316.5 147.355V153.787ZM331.653 137.672C331.653 134.756 330.758 132.058 328.806 130.08C326.85 128.097 324.177 127.184 321.302 127.184V133.616C322.818 133.616 323.712 134.075 324.226 134.596C324.745 135.122 325.221 136.061 325.221 137.672H331.653ZM321.302 127.184C311.859 127.184 306.423 135.93 306.423 143.161H312.855C312.855 138.317 316.475 133.616 321.302 133.616V127.184ZM306.423 143.161C306.423 146.077 307.244 148.794 309.122 150.809C311.026 152.85 313.66 153.787 316.5 153.787V147.355C315.086 147.355 314.289 146.919 313.826 146.422C313.337 145.898 312.855 144.91 312.855 143.161H306.423ZM421.287 144.808L424.183 146.205L424.189 146.195L424.193 146.185L421.287 144.808ZM361.873 141.377L359.197 139.593L359.155 139.657L359.115 139.723L361.873 141.377ZM362.422 140.554L359.836 138.641L359.789 138.705L359.746 138.77L362.422 140.554ZM406.194 116.267L402.979 116.166L402.976 116.267L402.979 116.367L406.194 116.267ZM405.37 148.65L402.223 149.309L402.777 151.954L405.477 151.864L405.37 148.65ZM382.181 130.126L385.036 128.645L385.024 128.623L385.012 128.601L382.181 130.126ZM378.888 130.126L376.244 128.295L376.233 128.31L376.223 128.325L378.888 130.126ZM368.048 144.808L365.528 142.809L364.832 143.687V144.808H368.048ZM417.788 143.161C417.808 143.132 417.767 143.201 417.639 143.274C417.512 143.345 417.394 143.367 417.328 143.369C417.273 143.372 417.284 143.361 417.369 143.388C417.452 143.416 417.572 143.469 417.71 143.561C417.847 143.651 417.975 143.762 418.081 143.878C418.188 143.995 418.248 144.091 418.274 144.143C418.302 144.199 418.271 144.162 418.261 144.035C418.249 143.892 418.269 143.669 418.381 143.431L424.193 146.185C425.058 144.359 424.66 142.536 424.031 141.274C423.398 140.005 422.382 138.941 421.263 138.199C420.154 137.464 418.669 136.868 417.027 136.945C415.234 137.029 413.556 137.914 412.437 139.593L417.788 143.161ZM418.391 143.41C416.424 147.484 412.828 155.575 406.675 162.706C400.569 169.781 392.191 175.621 380.671 175.621V182.053C394.674 182.053 404.683 174.858 411.544 166.908C418.357 159.013 422.308 150.089 424.183 146.205L418.391 143.41ZM380.671 175.621C375.172 175.621 371.127 174.276 368.214 172.266C365.301 170.257 363.317 167.446 362.16 164.179C359.805 157.531 360.953 149.162 364.631 143.032L359.115 139.723C354.56 147.314 353.032 157.675 356.097 166.327C357.65 170.709 360.401 174.691 364.562 177.561C368.724 180.431 374.096 182.053 380.671 182.053V175.621ZM364.549 143.161L365.097 142.338L359.746 138.77L359.197 139.593L364.549 143.161ZM365.007 142.466C367.51 139.083 370.002 135.247 372.451 131.506C374.926 127.725 377.368 124.026 379.855 120.749C382.351 117.46 384.783 114.746 387.186 112.873C389.585 111.006 391.725 110.152 393.707 110.152V103.72C389.789 103.72 386.286 105.422 383.234 107.799C380.187 110.172 377.363 113.393 374.73 116.861C372.089 120.342 369.531 124.224 367.07 127.982C364.584 131.779 362.205 135.439 359.836 138.641L365.007 142.466ZM393.707 110.152C400.984 110.152 403.043 114.125 402.979 116.166L409.408 116.367C409.619 109.627 403.445 103.72 393.707 103.72V110.152ZM402.979 116.367C402.968 116.019 403.244 116.004 402.689 116.452C402.063 116.957 401.167 117.423 399.782 118.168C398.573 118.819 396.963 119.7 395.677 120.906C394.297 122.201 393.098 124.05 393.098 126.558H399.53C399.53 126.321 399.583 126.061 400.077 125.597C400.665 125.046 401.55 124.521 402.829 123.833C403.931 123.24 405.513 122.437 406.727 121.458C408.011 120.423 409.487 118.71 409.408 116.166L402.979 116.367ZM393.098 126.558C393.098 127.474 393.382 128.375 393.601 128.989C393.853 129.692 394.191 130.471 394.561 131.267C395.292 132.841 396.303 134.817 397.29 136.815C399.347 140.981 401.426 145.509 402.223 149.309L408.518 147.99C407.531 143.283 405.082 138.069 403.057 133.968C402.003 131.832 401.084 130.042 400.395 128.559C400.055 127.827 399.812 127.254 399.659 126.825C399.473 126.306 399.53 126.294 399.53 126.558H393.098ZM405.477 151.864C411.329 151.669 415.017 147.318 417.788 143.161L412.437 139.593C409.719 143.669 407.645 145.356 405.263 145.435L405.477 151.864ZM375.732 153.787C379.584 153.787 382.851 152.358 385.126 149.817C387.36 147.321 388.416 144.005 388.416 140.554H381.984C381.984 142.729 381.324 144.421 380.334 145.527C379.383 146.588 377.917 147.355 375.732 147.355V153.787ZM388.416 140.554C388.416 136.549 387.083 132.594 385.036 128.645L379.326 131.606C381.121 135.067 381.984 137.973 381.984 140.554H388.416ZM385.012 128.601C384.446 127.549 383.113 125.572 380.637 125.572C378.346 125.572 376.919 127.32 376.244 128.295L381.532 131.956C381.732 131.667 381.811 131.624 381.742 131.677C381.66 131.739 381.274 132.004 380.637 132.004C379.964 132.004 379.51 131.71 379.328 131.552C379.184 131.427 379.212 131.396 379.349 131.65L385.012 128.601ZM376.223 128.325C372.853 133.312 368.653 138.869 365.528 142.809L370.567 146.806C373.754 142.787 378.061 137.093 381.553 131.926L376.223 128.325ZM364.832 144.808C364.832 150.642 370.305 153.787 375.732 153.787V147.355C374.028 147.355 372.829 146.888 372.137 146.363C371.485 145.868 371.264 145.332 371.264 144.808H364.832Z" fill="#000624"/>
</g>
<path d="M53.0637 32.6466L54.5189 45.2437L65.9276 46.8506L54.5189 48.4575L53.0637 61.0546L51.6084 48.4575L40.1997 46.8506L51.6084 45.2437L53.0637 32.6466Z" fill="#181818"/>
<path d="M46.5288 40.2992L52.9967 45.4618L59.4212 40.6454L54.4616 46.9599L59.4769 53.5425L53.009 48.3798L46.5846 53.1963L51.5441 46.8817L46.5288 40.2992Z" fill="#181818"/>
<path d="M332.587 2.63069L335.384 10.6218L343.575 13.3507L335.384 16.0795L332.587 24.0706L329.79 16.0795L321.599 13.3507L329.79 10.6218L332.587 2.63069Z" fill="#181818"/>
<path d="M321.331 21.3907L322.354 24.5871L325.351 25.6786L322.354 26.7702L321.331 29.9666L320.308 26.7702L317.311 25.6786L320.308 24.5871L321.331 21.3907Z" fill="#181818"/>
<path d="M343.843 21.3907L345.276 25.3862L349.471 26.7506L345.276 28.1151L343.843 32.1106L342.411 28.1151L338.215 26.7506L342.411 25.3862L343.843 21.3907Z" fill="#181818"/>
<path d="M42.4333 203.094L43.8887 215.691L55.2974 217.298L43.8887 218.905L42.4333 231.502L40.978 218.905L29.5693 217.298L40.978 215.691L42.4333 203.094Z" fill="#181818"/>
<path d="M35.8984 210.747L42.3662 215.909L48.791 211.093L43.8314 217.408L48.8467 223.99L42.3788 218.827L35.9541 223.644L40.9139 217.329L35.8984 210.747Z" fill="#181818"/>
<path d="M6.43198 184.334L8.0693 188.929L12.864 190.498L8.0693 192.067L6.43198 196.662L4.79467 192.067L0 190.498L4.79467 188.929L6.43198 184.334Z" fill="#181818"/>
<path d="M13.3998 200.414L15.4465 206.208L21.4398 208.186L15.4465 210.165L13.3998 215.958L11.3532 210.165L5.35986 208.186L11.3532 206.208L13.3998 200.414Z" fill="#181818"/>
<path d="M27.0681 192.374L28.3643 195.97L32.16 197.198L28.3643 198.426L27.0681 202.022L25.7719 198.426L21.9761 197.198L25.7719 195.97L27.0681 192.374Z" fill="#181818"/>
<path d="M266.659 195.858H158.924C152.115 195.858 146.596 201.378 146.596 208.186C146.596 214.995 152.115 220.514 158.924 220.514H266.659C273.468 220.514 278.987 214.995 278.987 208.186C278.987 201.378 273.468 195.858 266.659 195.858Z" fill="#E1537D" stroke="#181818" stroke-width="3"/>
<path d="M173.396 212.742L173.737 213.741L174.736 214.082L173.737 214.423L173.396 215.422L173.055 214.423L172.056 214.082L173.055 213.741L173.396 212.742Z" fill="#EDDEE5"/>
<path d="M227.531 212.742L227.872 213.741L228.871 214.082L227.872 214.423L227.531 215.422L227.191 214.423L226.191 214.082L227.191 213.741L227.531 212.742Z" fill="#EDDEE5"/>
<path d="M181.996 215.663C181.079 215.663 180.235 215.495 179.463 215.157C178.707 214.803 178.04 214.321 177.461 213.71C176.898 213.099 176.456 212.399 176.135 211.611C175.829 210.823 175.676 209.987 175.676 209.103C175.676 207.913 175.942 206.827 176.472 205.847C177.003 204.866 177.743 204.086 178.691 203.507C179.64 202.928 180.733 202.639 181.972 202.639C183.145 202.639 184.183 202.912 185.083 203.459C185.984 203.989 186.651 204.713 187.085 205.63L185.493 206.136C185.139 205.493 184.641 204.994 183.998 204.641C183.371 204.271 182.671 204.086 181.899 204.086C181.063 204.086 180.299 204.303 179.608 204.737C178.916 205.171 178.362 205.766 177.944 206.522C177.542 207.278 177.341 208.138 177.341 209.103C177.341 210.051 177.55 210.912 177.968 211.684C178.386 212.455 178.941 213.075 179.632 213.541C180.323 213.991 181.087 214.216 181.923 214.216C182.47 214.216 182.993 214.12 183.491 213.927C184.006 213.734 184.448 213.477 184.818 213.155C185.204 212.817 185.461 212.455 185.59 212.07L187.206 212.552C186.98 213.147 186.603 213.686 186.072 214.168C185.557 214.634 184.946 215.004 184.239 215.277C183.547 215.535 182.8 215.663 181.996 215.663ZM195.019 215.663C194.119 215.663 193.283 215.495 192.511 215.157C191.755 214.803 191.096 214.329 190.533 213.734C189.986 213.123 189.56 212.431 189.255 211.659C188.949 210.872 188.796 210.043 188.796 209.175C188.796 208.275 188.949 207.439 189.255 206.667C189.56 205.879 189.994 205.187 190.557 204.592C191.12 203.981 191.779 203.507 192.535 203.169C193.307 202.816 194.143 202.639 195.044 202.639C195.944 202.639 196.772 202.816 197.528 203.169C198.284 203.507 198.943 203.981 199.506 204.592C200.069 205.187 200.503 205.879 200.808 206.667C201.114 207.439 201.266 208.275 201.266 209.175C201.266 210.043 201.114 210.872 200.808 211.659C200.503 212.431 200.069 213.123 199.506 213.734C198.959 214.329 198.3 214.803 197.528 215.157C196.772 215.495 195.936 215.663 195.019 215.663ZM190.461 209.199C190.461 210.132 190.662 210.984 191.064 211.756C191.482 212.512 192.037 213.115 192.728 213.565C193.419 213.999 194.183 214.216 195.019 214.216C195.856 214.216 196.619 213.991 197.311 213.541C198.002 213.091 198.557 212.48 198.975 211.708C199.393 210.92 199.602 210.068 199.602 209.151C199.602 208.218 199.393 207.366 198.975 206.594C198.557 205.822 198.002 205.211 197.311 204.761C196.619 204.311 195.856 204.086 195.019 204.086C194.183 204.086 193.419 204.319 192.728 204.785C192.053 205.252 191.506 205.871 191.088 206.643C190.67 207.398 190.461 208.251 190.461 209.199ZM222.702 215.422H221.062V208.403C221.062 206.94 220.829 205.863 220.362 205.171C219.896 204.48 219.205 204.134 218.288 204.134C217.339 204.134 216.487 204.472 215.731 205.147C214.992 205.822 214.469 206.691 214.164 207.752V215.422H212.524V208.403C212.524 206.924 212.298 205.847 211.848 205.171C211.398 204.48 210.706 204.134 209.774 204.134C208.841 204.134 207.997 204.464 207.241 205.123C206.485 205.782 205.955 206.651 205.649 207.728V215.422H204.009V202.856H205.505V205.702C206.035 204.721 206.711 203.965 207.531 203.435C208.367 202.904 209.291 202.639 210.304 202.639C211.35 202.639 212.194 202.936 212.837 203.531C213.48 204.126 213.874 204.906 214.019 205.871C214.598 204.809 215.289 204.005 216.093 203.459C216.913 202.912 217.838 202.639 218.867 202.639C219.575 202.639 220.17 202.767 220.652 203.025C221.15 203.282 221.544 203.652 221.834 204.134C222.139 204.6 222.356 205.171 222.485 205.847C222.63 206.506 222.702 207.246 222.702 208.066V215.422ZM238.473 215.663C237.492 215.663 236.583 215.414 235.747 214.916C234.911 214.401 234.26 213.758 233.794 212.986V215.422H232.322V197.815H233.962V205.485C234.525 204.633 235.201 203.949 235.988 203.435C236.776 202.904 237.693 202.639 238.738 202.639C239.623 202.639 240.41 202.824 241.102 203.193C241.809 203.563 242.412 204.062 242.91 204.689C243.409 205.3 243.787 205.999 244.045 206.787C244.302 207.559 244.43 208.355 244.43 209.175C244.43 210.06 244.278 210.888 243.972 211.659C243.683 212.431 243.265 213.123 242.718 213.734C242.171 214.329 241.536 214.803 240.812 215.157C240.105 215.495 239.325 215.663 238.473 215.663ZM238.087 214.216C238.762 214.216 239.389 214.08 239.968 213.806C240.547 213.533 241.046 213.155 241.464 212.673C241.882 212.19 242.203 211.651 242.428 211.056C242.654 210.445 242.766 209.818 242.766 209.175C242.766 208.291 242.573 207.463 242.187 206.691C241.817 205.903 241.295 205.276 240.619 204.809C239.96 204.327 239.18 204.086 238.28 204.086C237.637 204.086 237.034 204.231 236.471 204.52C235.924 204.809 235.434 205.195 235 205.678C234.581 206.144 234.236 206.659 233.962 207.221V211.129C234.027 211.563 234.196 211.973 234.469 212.359C234.742 212.729 235.08 213.05 235.482 213.324C235.9 213.597 236.334 213.814 236.784 213.975C237.235 214.136 237.669 214.216 238.087 214.216ZM253.48 204.303C252.386 204.335 251.421 204.641 250.585 205.219C249.765 205.798 249.186 206.594 248.849 207.607V215.422H247.209V202.856H248.752V205.871C249.186 204.986 249.757 204.271 250.465 203.724C251.188 203.177 251.952 202.872 252.756 202.807C252.917 202.791 253.054 202.783 253.166 202.783C253.295 202.783 253.399 202.791 253.48 202.807V204.303Z" fill="#EDDEE5"/>
</svg>