<svg width="65" height="55" viewBox="0 0 65 55" fill="none" xmlns="http://www.w3.org/2000/svg">
<path d="M63.7379 6.72408C63.7379 6.72408 64.6482 2.07069 63.0759 1.32944C61.5036 0.588195 59.7244 1.32944 59.7244 1.32944L2.37659 23.6904C2.37659 23.6904 1.1353 24.2258 1.01117 25.5024C0.887038 26.779 1.8387 27.232 1.8387 27.232C1.8387 27.232 16.6101 31.9677 16.8997 31.8853C17.1894 31.803 53.1042 9.64789 53.1042 9.64789C53.1042 9.64789 53.8489 9.31845 54.2627 9.73026C54.6765 10.1421 54.0144 10.6362 54.0144 10.6362C54.0144 10.6362 24.0579 37.8977 23.9337 38.2683C23.8096 38.6389 23.1062 49.4694 23.1062 49.4694C23.1062 49.4694 23.189 50.5401 24.5544 50.8284C25.9198 51.1166 26.5818 50.1283 26.5818 50.1283C26.5818 50.1283 34.4434 42.4687 34.7744 42.5099C35.1054 42.5511 47.6425 52.0638 48.1804 52.5168C48.7183 52.9697 51.2008 54.2463 52.6076 53.9581C54.0144 53.6698 54.4282 50.8284 54.4282 50.8284L63.7379 6.72408Z" fill="#FF89AC" stroke="#181818" stroke-width="2"/>
</svg>