<svg width="46" height="53" viewBox="0 0 46 53" fill="none" xmlns="http://www.w3.org/2000/svg">
<path d="M38.5688 11.437C40.4939 12.719 42.709 13.4784 45 13.6497V20.7125C41.0413 20.5283 37.2109 19.1942 33.9757 16.8595L32.3905 15.7156V17.6705V36.1751C32.3905 36.1752 32.3905 36.1753 32.3905 36.1755C32.3892 39.4009 31.4112 42.5483 29.5883 45.197C27.7653 47.8456 25.1846 49.8688 22.1922 50.9973C19.1999 52.1259 15.9375 52.3065 12.8409 51.5152C9.74425 50.724 6.95972 48.9982 4.86032 46.5672C2.76083 44.1361 1.4468 41.1158 1.09518 37.9099C0.743557 34.7039 1.37129 31.4666 2.89375 28.6309C4.41616 25.7953 6.76024 23.4972 9.61136 22.0427C12.2039 20.7201 15.104 20.1519 17.9877 20.3923V27.5481C16.6363 27.3416 15.2489 27.4591 13.9406 27.8997C12.2072 28.4834 10.7026 29.6039 9.64065 31.0995C8.57876 32.5951 8.01338 34.3896 8.02412 36.227C8.03485 38.0643 8.62116 39.8521 9.70049 41.3349C10.7799 42.8179 12.2976 43.9205 14.0377 44.4836C15.7779 45.0468 17.6504 45.0412 19.3872 44.4677C21.124 43.8942 22.6351 42.7826 23.7058 41.2933C24.7764 39.804 25.3522 38.0128 25.3522 36.1754V1H32.4196C32.452 1.49226 32.5111 1.98262 32.5967 2.46888L32.5966 2.46889L32.5983 2.4781C32.937 4.3021 33.6414 6.0377 34.6686 7.57868C35.6948 9.11804 37.0217 10.431 38.5688 11.437Z" fill="#FF89AC" stroke="black" stroke-width="2"/>
</svg>