<svg width="67" height="55" viewBox="0 0 67 55" fill="none" xmlns="http://www.w3.org/2000/svg">
<path d="M64.2682 2.00955C63.8064 2.00955 56.1865 5.13749 55.7247 5.1375C55.2629 5.1375 45.103 -2.972 37.5986 3.5156C30.0941 10.0032 32.9805 16.4908 32.865 17.3017C32.7496 18.1127 5.61812 3.51559 5.27176 3.5156C4.9254 3.5156 2.15453 10.119 4.00178 14.2896C5.84902 18.4602 9.19716 21.0089 9.31261 21.3565C9.42806 21.704 3.65542 19.5029 3.42451 19.7346C3.19361 19.9663 3.65542 25.8746 6.42629 28.655C9.19716 31.4354 13.6998 32.7098 13.6998 33.0573C13.6998 33.4049 8.38899 33.0573 8.15808 33.4049C7.92718 33.7524 8.8508 36.6487 12.5453 39.6608C16.2398 42.6729 20.2806 42.3253 20.3961 42.6729C20.5115 43.0204 1 47.8861 1 48.3495C1 48.8129 8.15808 52.6359 14.2771 53.6786C20.3961 54.7212 38.4887 53.5339 45.9112 45.5099C55.9556 34.6516 59.5346 13.9421 59.5346 13.9421C59.5346 13.9421 66 7.57034 66 7.22279C66 6.87525 59.0728 9.19224 58.7265 9.07639C58.3801 8.96055 64.73 2.00954 64.2682 2.00955Z" fill="#FF89AC" stroke="#181818" stroke-width="2"/>
</svg>