<svg width="53" height="53" viewBox="0 0 53 53" fill="none" xmlns="http://www.w3.org/2000/svg">
<g clip-path="url(#clip0_18_171)">
<path d="M-0.0200195 53L4.82506 40.4037C2.08231 36.1659 0.638064 31.2612 0.638064 26.193C0.638064 11.7483 12.3864 0 26.8289 0C41.2692 0 53.0197 11.7483 53.0197 26.193C53.0197 40.6333 41.2692 52.3839 26.8289 52.3839C21.9021 52.3839 17.11 50.9993 12.9363 48.3802L-0.0200195 53ZM13.177 46.3176L13.5634 46.5693C17.5208 49.1553 22.1075 50.5222 26.8289 50.5222C40.2467 50.5222 51.1581 39.6109 51.1581 26.193C51.1581 12.7752 40.2467 1.85942 26.8289 1.85942C13.4111 1.85942 2.49748 12.7752 2.49748 26.193C2.49748 31.0558 3.92848 35.7507 6.6359 39.7721L6.90752 40.174L3.17102 49.8885L13.177 46.3176Z" fill="black"/>
<path d="M13.177 46.3176L13.5634 46.5693C17.5208 49.1553 22.1075 50.5222 26.8289 50.5222C40.2467 50.5222 51.1581 39.6109 51.1581 26.193C51.1581 12.7752 40.2467 1.85942 26.8289 1.85942C13.4111 1.85942 2.49748 12.7752 2.49748 26.193C2.49748 31.0558 3.92848 35.7507 6.6359 39.7721L6.90752 40.174L3.17102 49.8885L13.177 46.3176Z" fill="#FF89AC"/>
<path d="M33.4232 39.1957C30.2586 39.1957 23.775 35.4239 20.6855 32.3322C17.9229 29.5696 13.8242 23.0042 13.8242 19.5967C13.8242 16.1915 17.4591 12.3998 19.9214 12.3998H20.2637L20.5221 12.6206C21.1758 13.1771 24.4706 16.0082 25.1309 17.2957C26.0849 19.1551 23.7529 21.8183 22.5228 23.0373C23.0727 23.7307 24.3226 25.2147 26.0628 26.9549C27.7036 28.5979 29.7043 29.4834 30.6341 29.8368C31.4423 29.0418 33.0919 27.6218 34.6002 27.6218L34.8211 27.6461L35.7375 27.8957C37.0139 28.5515 39.8428 31.8464 40.3949 32.4978L40.6157 32.7584V33.0985C40.6157 35.563 36.8284 39.1957 33.4232 39.1957ZM19.6233 14.2967C18.1526 14.6501 15.6814 17.3553 15.6814 19.5967C15.6814 22.4124 19.5041 28.5228 21.9995 31.0182C25.0116 34.0304 30.9896 37.3363 33.4232 37.3363C35.6646 37.3363 38.3676 34.8629 38.7165 33.3944C37.4777 31.959 35.6845 30.0355 34.969 29.5917L34.5097 29.4812C33.7677 29.5585 32.4603 30.5589 31.5814 31.5284L31.1861 31.9612L30.623 31.7934C30.2807 31.6918 27.2089 30.7267 24.7466 28.2667C23.1346 26.6546 20.648 23.9052 20.4316 23.1323L20.2748 22.578L20.7054 22.1915C22.3793 20.6877 23.7507 18.6825 23.4724 18.1437C23.1368 17.4834 21.1161 15.5864 19.6233 14.2967Z" fill="black"/>
</g>
<defs>
<clipPath id="clip0_18_171">
<rect width="53" height="53" fill="white"/>
</clipPath>
</defs>
</svg>