<svg width="55" height="42" viewBox="0 0 55 42" fill="none" xmlns="http://www.w3.org/2000/svg">
<path d="M28.4668 3.49909C35.4813 3.49909 41.2175 3.61937 46.524 3.85993H46.5992H46.6743C49.1557 3.85993 51.186 6.26555 51.186 9.22885V9.34913L51.1967 9.46941C51.4438 13.1872 51.5619 17.0471 51.5619 20.9399C51.5727 24.8326 51.4438 28.6925 51.1967 32.4103L51.186 32.5306V32.6509C51.186 34.1599 50.6811 35.5595 49.7465 36.5983C48.9087 37.5387 47.813 38.0635 46.6743 38.0635H46.5884H46.5025C40.82 38.3369 34.8153 38.479 28.6279 38.479C28.252 38.479 27.8653 38.479 27.4893 38.479C27.1026 38.479 26.7159 38.479 26.3292 38.479C20.1203 38.479 14.1156 38.3369 8.4761 38.0745H8.39016H8.30423C7.16559 38.0745 6.08065 37.5496 5.24278 36.6092C4.31898 35.5704 3.80337 34.1708 3.80337 32.6618V32.5415L3.79262 32.4212C3.53482 28.6925 3.41666 24.8326 3.43814 20.9727V20.9617V20.9508C3.4274 17.0909 3.54556 13.2419 3.79262 9.51315L3.80337 9.39287V9.27259C3.80337 6.29836 5.82285 3.8818 8.30423 3.8818H8.37942H8.45462C13.7719 3.6303 19.508 3.52096 26.5225 3.52096H27.4893H28.4668M28.4668 0C28.1445 0 27.8223 0 27.5 0C27.1778 0 26.8555 0 26.5333 0C20.3459 0 14.266 0.0874776 8.31497 0.360844C3.93227 0.360844 0.376695 4.33012 0.376695 9.25072C0.108148 13.1653 -0.0100135 17.0581 0.000728417 20.9617C-0.0100135 24.8654 0.0974057 28.7581 0.365954 32.6618C0.365954 37.5824 3.92153 41.5845 8.30423 41.5845C14.1908 41.8688 20.1955 42 26.3292 42C26.7159 42 27.1133 42 27.5 42C27.8867 42 28.2734 42 28.6494 42C34.7831 42 40.7878 41.8688 46.6851 41.5845C51.0785 41.5845 54.6341 37.5824 54.6341 32.6618C54.8919 28.7581 55.0101 24.8545 54.9993 20.9508C55.0101 17.0471 54.8919 13.1544 54.6341 9.23978C54.6341 4.31919 51.0785 0.371778 46.6851 0.371778C40.7341 0.0874774 34.6649 0 28.4668 0Z" fill="black"/>
<path d="M28.4668 0H27.5H26.5333C20.3459 0 14.266 0.0874776 8.31497 0.360844C3.93227 0.360844 0.376695 4.33012 0.376695 9.25072C0.108148 13.1653 -0.0100135 17.0581 0.000728417 20.9617C-0.0100135 24.8654 0.0974057 28.7581 0.365954 32.6618C0.365954 37.5824 3.92153 41.5845 8.30423 41.5845C14.1908 41.8688 20.1955 42 26.3292 42H27.5H28.6494C34.7831 42 40.7878 41.8688 46.6851 41.5845C51.0785 41.5845 54.6341 37.5824 54.6341 32.6618C54.8919 28.7581 55.0101 24.8545 54.9993 20.9508C55.0101 17.0471 54.8919 13.1544 54.6341 9.23978C54.6341 4.31919 51.0785 0.371778 46.6851 0.371778C40.7341 0.0874774 34.6649 0 28.4668 0Z" fill="black"/>
</svg>
